<svg width="595" height="475" viewBox="0 0 595 475" version="1.1" xmlns="http://www.w3.org/2000/svg" xmlns:xlink="http://www.w3.org/1999/xlink">
<title>computador</title>
<desc>Created using Figma</desc>
<g id="Canvas" transform="translate(1040 -658)">
<g id="computador">
<g id="Group 3">
<g id="Rectangle">
<use xlink:href="#path0_fill" transform="translate(-1040 658)" fill="#36343A"/>
</g>
<g id="Rectangle">
<use xlink:href="#path1_fill" transform="translate(-1019.08 682.27)" fill="#4F4F4F"/>
</g>
<g id="Rectangle 2.1">
<use xlink:href="#path2_fill" transform="translate(-834.307 1055.57)" fill="#656568"/>
</g>
<g id="Rectangle 2">
<use xlink:href="#path3_fill" transform="translate(-873.818 1100.64)" fill="#36343A"/>
</g>
</g>
<g id="def grupo_garotas_conhecimento_Python(): aprendizado = 100 return aprendizado print(&#226;&#128;&#153;Pyladies Sorocaba&#226;&#128;&#153;);">
<use xlink:href="#path4_fill" transform="translate(-998.533 709.887)" fill="#F48DA8"/>
<use xlink:href="#path5_fill" transform="translate(-998.533 709.887)" fill="#B092C4"/>
<use xlink:href="#path6_fill" transform="translate(-998.533 709.887)" fill="#FFFFFF"/>
<use xlink:href="#path7_fill" transform="translate(-998.533 709.887)" fill="#FFFAFA"/>
<use xlink:href="#path8_fill" transform="translate(-998.533 709.887)" fill="#FFD350"/>
</g>
</g>
</g>
<defs>
<path id="path0_fill" d="M 0 23.1359C 0 10.3583 10.3583 0 23.1359 0L 571.864 0C 584.642 0 595 10.3583 595 23.1359L 595 374.431C 595 387.209 584.642 397.567 571.864 397.567L 23.1359 397.567C 10.3583 397.567 0 387.209 0 374.431L 0 23.1359Z"/>
<path id="path1_fill" d="M 0 0L 553.164 0L 553.164 321.29L 0 321.29L 0 0Z"/>
<path id="path2_fill" d="M 24.7106 6.45692C 26.6576 2.50368 30.6815 0 35.0882 0L 149.818 0C 154.156 0 158.13 2.42752 160.11 6.28762L 177.294 39.7819C 181.243 47.4799 175.653 56.6302 167.001 56.6302L 18.5921 56.6302C 10.023 56.6302 4.42844 47.6385 8.21447 39.9512L 24.7106 6.45692Z"/>
<path id="path3_fill" d="M 0 11.5679C 0 5.17914 5.17914 0 11.5679 0L 253.393 0C 259.782 0 264.961 5.17914 264.961 11.5679L 264.961 20.7922C 264.961 27.181 259.782 32.3601 253.393 32.3601L 11.5679 32.3601C 5.17914 32.3601 0 27.181 0 20.7922L 0 11.5679Z"/>
<path id="path4_fill" d="M 10.4768 24L 10.4768 22.2962C 9.62069 23.6355 8.36195 24.3051 6.70058 24.3051C 5.62408 24.3051 4.63234 24.0085 3.72537 23.4151C 2.82687 22.8218 2.12757 21.9953 1.62746 20.9358C 1.13583 19.8678 0.89002 18.6429 0.89002 17.2613C 0.89002 15.9135 1.11464 14.6929 1.56389 13.5995C 2.01314 12.4976 2.68701 11.6542 3.58551 11.0693C 4.484 10.4844 5.48845 10.192 6.59886 10.192C 7.41259 10.192 8.13732 10.3657 8.77305 10.7133C 9.40878 11.0523 9.92584 11.4973 10.3242 12.0483L 10.3242 5.36044L 12.6001 5.36044L 12.6001 24L 10.4768 24ZM 3.24221 17.2613C 3.24221 18.9905 3.6067 20.2831 4.33567 21.1392C 5.06464 21.9953 5.92499 22.4234 6.91672 22.4234C 7.91694 22.4234 8.76458 22.0165 9.45964 21.2028C 10.1632 20.3806 10.5149 19.1303 10.5149 17.452C 10.5149 15.6041 10.1589 14.2479 9.44692 13.3833C 8.73491 12.5187 7.8576 12.0865 6.81501 12.0865C 5.79784 12.0865 4.94597 12.5018 4.25938 13.3325C 3.58127 14.1632 3.24221 15.4728 3.24221 17.2613ZM 25.4546 19.6516L 27.8195 19.9441C 27.4465 21.3257 26.7557 22.398 25.747 23.1608C 24.7383 23.9237 23.4499 24.3051 21.8818 24.3051C 19.9068 24.3051 18.3386 23.6991 17.1774 22.487C 16.0246 21.2664 15.4482 19.5584 15.4482 17.363C 15.4482 15.0913 16.0331 13.3282 17.2028 12.0737C 18.3726 10.8192 19.8898 10.192 21.7546 10.192C 23.5601 10.192 25.035 10.8065 26.1793 12.0356C 27.3236 13.2647 27.8958 14.9938 27.8958 17.2231C 27.8958 17.3588 27.8915 17.5622 27.883 17.8334L 17.8131 17.8334C 17.8979 19.3168 18.3175 20.4526 19.0719 21.2409C 19.8262 22.0292 20.7671 22.4234 21.8945 22.4234C 22.7336 22.4234 23.4499 22.203 24.0432 21.7622C 24.6366 21.3215 25.107 20.6179 25.4546 19.6516ZM 17.9403 15.9517L 25.48 15.9517C 25.3783 14.8158 25.0901 13.964 24.6154 13.3961C 23.8864 12.5145 22.9413 12.0737 21.7801 12.0737C 20.729 12.0737 19.8432 12.4255 19.1227 13.129C 18.4107 13.8326 18.0165 14.7735 17.9403 15.9517ZM 31.2524 24L 31.2524 12.2772L 29.2308 12.2772L 29.2308 10.4971L 31.2524 10.4971L 31.2524 9.06038C 31.2524 8.15341 31.3329 7.47954 31.494 7.03877C 31.7144 6.44542 32.1 5.9665 32.651 5.60202C 33.2105 5.22906 33.9903 5.04258 34.9905 5.04258C 35.6347 5.04258 36.3467 5.11887 37.1265 5.27144L 36.7832 7.26763C 36.3086 7.18287 35.8593 7.14048 35.4355 7.14048C 34.7404 7.14048 34.2488 7.28882 33.9606 7.58549C 33.6724 7.88217 33.5283 8.43737 33.5283 9.2511L 33.5283 10.4971L 36.1602 10.4971L 36.1602 12.2772L 33.5283 12.2772L 33.5283 24L 31.2524 24ZM 1.71647 148.175L 1.71647 129.497L 3.80166 129.497L 3.80166 131.252C 4.29329 130.565 4.84849 130.052 5.46726 129.713C 6.08604 129.366 6.8362 129.192 7.71774 129.192C 8.87053 129.192 9.8877 129.489 10.7692 130.082C 11.6508 130.675 12.3162 131.515 12.7654 132.599C 13.2147 133.676 13.4393 134.858 13.4393 136.147C 13.4393 137.528 13.1892 138.775 12.6891 139.885C 12.1975 140.987 11.477 141.834 10.5277 142.428C 9.58678 143.013 8.59505 143.305 7.55245 143.305C 6.78958 143.305 6.10299 143.144 5.49269 142.822C 4.89087 142.5 4.395 142.093 4.00509 141.601L 4.00509 148.175L 1.71647 148.175ZM 3.78894 136.325C 3.78894 138.063 4.14071 139.347 4.84425 140.177C 5.54779 141.008 6.39967 141.423 7.39988 141.423C 8.41704 141.423 9.28587 140.995 10.0064 140.139C 10.7353 139.275 11.0998 137.94 11.0998 136.134C 11.0998 134.413 10.7438 133.125 10.0318 132.269C 9.32825 131.413 8.48485 130.985 7.50159 130.985C 6.52681 130.985 5.66222 131.442 4.90782 132.358C 4.1619 133.265 3.78894 134.587 3.78894 136.325ZM 16.1856 143L 16.1856 129.497L 18.2454 129.497L 18.2454 131.544C 18.7709 130.586 19.2541 129.955 19.6949 129.65C 20.1441 129.345 20.6357 129.192 21.1698 129.192C 21.9411 129.192 22.7252 129.438 23.5219 129.929L 22.7336 132.053C 22.1742 131.722 21.6148 131.557 21.0553 131.557C 20.5552 131.557 20.106 131.709 19.7076 132.015C 19.3092 132.311 19.0252 132.727 18.8557 133.261C 18.6014 134.074 18.4743 134.964 18.4743 135.931L 18.4743 143L 16.1856 143ZM 24.8951 126.992L 24.8951 124.36L 27.1837 124.36L 27.1837 126.992L 24.8951 126.992ZM 24.8951 143L 24.8951 129.497L 27.1837 129.497L 27.1837 143L 24.8951 143ZM 30.6803 143L 30.6803 129.497L 32.74 129.497L 32.74 131.417C 33.7317 129.934 35.1643 129.192 37.0375 129.192C 37.8513 129.192 38.5972 129.34 39.2753 129.637C 39.9619 129.925 40.4747 130.307 40.8138 130.781C 41.1528 131.256 41.3902 131.82 41.5258 132.472C 41.6105 132.896 41.6529 133.638 41.6529 134.697L 41.6529 143L 39.3643 143L 39.3643 134.786C 39.3643 133.854 39.2753 133.159 39.0973 132.701C 38.9193 132.235 38.6014 131.866 38.1437 131.595C 37.6945 131.315 37.1647 131.175 36.5544 131.175C 35.5796 131.175 34.7362 131.485 34.0242 132.104C 33.3206 132.722 32.9689 133.896 32.9689 135.626L 32.9689 143L 30.6803 143ZM 50.1717 140.953L 50.5023 142.975C 49.8581 143.11 49.2817 143.178 48.7731 143.178C 47.9424 143.178 47.2982 143.047 46.8405 142.784C 46.3827 142.521 46.0606 142.178 45.8742 141.754C 45.6877 141.322 45.5944 140.419 45.5944 139.046L 45.5944 131.277L 43.9161 131.277L 43.9161 129.497L 45.5944 129.497L 45.5944 126.153L 47.8703 124.78L 47.8703 129.497L 50.1717 129.497L 50.1717 131.277L 47.8703 131.277L 47.8703 139.173C 47.8703 139.826 47.9085 140.245 47.9848 140.432C 48.0695 140.618 48.2009 140.766 48.3789 140.877C 48.5654 140.987 48.8282 141.042 49.1672 141.042C 49.4215 141.042 49.7563 141.012 50.1717 140.953Z"/>
<path id="path5_fill" d="M 44.7807 25.1189L 47.0058 25.4495C 47.099 26.136 47.3575 26.6362 47.7813 26.9498C 48.3493 27.3736 49.1249 27.5855 50.1081 27.5855C 51.1677 27.5855 51.9856 27.3736 52.562 26.9498C 53.1384 26.526 53.5283 25.9326 53.7318 25.1697C 53.8504 24.7035 53.9055 23.7245 53.8971 22.2327C 52.8968 23.4109 51.6508 24 50.159 24C 48.3026 24 46.8659 23.3304 45.8487 21.9911C 44.8316 20.6518 44.323 19.0456 44.323 17.1723C 44.323 15.8839 44.5561 14.6972 45.0223 13.6122C 45.4885 12.5187 46.1624 11.6753 47.0439 11.082C 47.9339 10.4887 48.9765 10.192 50.1717 10.192C 51.7652 10.192 53.0791 10.8362 54.1132 12.1246L 54.1132 10.4971L 56.2238 10.4971L 56.2238 22.1691C 56.2238 24.2712 56.0077 25.7588 55.5754 26.6319C 55.1516 27.5135 54.4734 28.2085 53.541 28.7171C 52.6171 29.2257 51.477 29.48 50.1208 29.48C 48.5103 29.48 47.2092 29.1155 46.2175 28.3865C 45.2257 27.666 44.7468 26.5768 44.7807 25.1189ZM 46.6752 17.007C 46.6752 18.7786 47.0269 20.0712 47.7305 20.8849C 48.434 21.6987 49.3156 22.1055 50.3751 22.1055C 51.4262 22.1055 52.3077 21.7029 53.0197 20.8976C 53.7318 20.0839 54.0878 18.8125 54.0878 17.0833C 54.0878 15.4304 53.719 14.1844 52.9816 13.3452C 52.2526 12.506 51.3711 12.0865 50.337 12.0865C 49.3198 12.0865 48.4552 12.5018 47.7432 13.3325C 47.0312 14.1547 46.6752 15.3795 46.6752 17.007ZM 59.6695 24L 59.6695 10.4971L 61.7292 10.4971L 61.7292 12.5442C 62.2548 11.5863 62.7379 10.9549 63.1787 10.6497C 63.6279 10.3446 64.1196 10.192 64.6536 10.192C 65.4249 10.192 66.209 10.4378 67.0058 10.9294L 66.2175 13.0528C 65.658 12.7222 65.0986 12.5569 64.5391 12.5569C 64.039 12.5569 63.5898 12.7095 63.1914 13.0146C 62.793 13.3113 62.5091 13.7266 62.3395 14.2606C 62.0852 15.0744 61.9581 15.9644 61.9581 16.9307L 61.9581 24L 59.6695 24ZM 77.2156 24L 77.2156 22.0165C 76.1645 23.5423 74.7362 24.3051 72.9308 24.3051C 72.134 24.3051 71.3881 24.1526 70.693 23.8474C 70.0064 23.5423 69.4936 23.1608 69.1545 22.7031C 68.824 22.2369 68.5909 21.669 68.4552 20.9994C 68.362 20.5501 68.3154 19.8381 68.3154 18.8633L 68.3154 10.4971L 70.604 10.4971L 70.604 17.986C 70.604 19.1812 70.6506 19.9864 70.7439 20.4018C 70.888 21.0036 71.1931 21.4783 71.6593 21.8258C 72.1255 22.1649 72.7019 22.3344 73.3885 22.3344C 74.0751 22.3344 74.7193 22.1606 75.3211 21.8131C 75.9229 21.4571 76.3467 20.9782 76.5926 20.3763C 76.8468 19.766 76.974 18.8845 76.974 17.7317L 76.974 10.4971L 79.2626 10.4971L 79.2626 24L 77.2156 24ZM 82.8608 29.1748L 82.8608 10.4971L 84.946 10.4971L 84.946 12.2517C 85.4377 11.5652 85.9929 11.0523 86.6116 10.7133C 87.2304 10.3657 87.9806 10.192 88.8621 10.192C 90.0149 10.192 91.0321 10.4887 91.9136 11.082C 92.7952 11.6753 93.4605 12.5145 93.9098 13.5995C 94.359 14.676 94.5837 15.8584 94.5837 17.1468C 94.5837 18.5285 94.3336 19.7745 93.8335 20.8849C 93.3419 21.9869 92.6214 22.8345 91.672 23.4278C 90.7312 24.0127 89.7394 24.3051 88.6968 24.3051C 87.934 24.3051 87.2474 24.1441 86.6371 23.822C 86.0352 23.4999 85.5394 23.093 85.1495 22.6014L 85.1495 29.1748L 82.8608 29.1748ZM 84.9333 17.3249C 84.9333 19.0625 85.2851 20.3467 85.9886 21.1774C 86.6922 22.0081 87.544 22.4234 88.5442 22.4234C 89.5614 22.4234 90.4302 21.9953 91.1507 21.1392C 91.8797 20.2746 92.2442 18.9396 92.2442 17.1341C 92.2442 15.4134 91.8882 14.125 91.1762 13.2689C 90.4726 12.4128 89.6292 11.9847 88.646 11.9847C 87.6712 11.9847 86.8066 12.4425 86.0522 13.3579C 85.3063 14.2649 84.9333 15.5872 84.9333 17.3249ZM 96.5036 17.2486C 96.5036 14.748 97.1986 12.8959 98.5888 11.6923C 99.75 10.6921 101.166 10.192 102.835 10.192C 104.692 10.192 106.209 10.8023 107.387 12.0229C 108.565 13.235 109.155 14.9133 109.155 17.0578C 109.155 18.7955 108.892 20.1644 108.366 21.1647C 107.849 22.1564 107.091 22.9277 106.09 23.4787C 105.099 24.0297 104.014 24.3051 102.835 24.3051C 100.945 24.3051 99.4152 23.6991 98.2455 22.487C 97.0842 21.2748 96.5036 19.5287 96.5036 17.2486ZM 98.8558 17.2486C 98.8558 18.9777 99.233 20.2746 99.9874 21.1392C 100.742 21.9953 101.691 22.4234 102.835 22.4234C 103.971 22.4234 104.916 21.9911 105.671 21.1265C 106.425 20.2619 106.802 18.9438 106.802 17.1723C 106.802 15.5024 106.421 14.2395 105.658 13.3833C 104.904 12.5187 103.963 12.0865 102.835 12.0865C 101.691 12.0865 100.742 12.5145 99.9874 13.3706C 99.233 14.2267 98.8558 15.5194 98.8558 17.2486ZM 109.739 29.1748L 109.739 27.5219L 124.908 27.5219L 124.908 29.1748L 109.739 29.1748ZM 125.925 25.1189L 128.15 25.4495C 128.243 26.136 128.502 26.6362 128.926 26.9498C 129.494 27.3736 130.269 27.5855 131.252 27.5855C 132.312 27.5855 133.13 27.3736 133.706 26.9498C 134.283 26.526 134.673 25.9326 134.876 25.1697C 134.995 24.7035 135.05 23.7245 135.041 22.2327C 134.041 23.4109 132.795 24 131.303 24C 129.447 24 128.01 23.3304 126.993 21.9911C 125.976 20.6518 125.467 19.0456 125.467 17.1723C 125.467 15.8839 125.7 14.6972 126.167 13.6122C 126.633 12.5187 127.307 11.6753 128.188 11.082C 129.078 10.4887 130.121 10.192 131.316 10.192C 132.91 10.192 134.223 10.8362 135.258 12.1246L 135.258 10.4971L 137.368 10.4971L 137.368 22.1691C 137.368 24.2712 137.152 25.7588 136.72 26.6319C 136.296 27.5135 135.618 28.2085 134.685 28.7171C 133.761 29.2257 132.621 29.48 131.265 29.48C 129.655 29.48 128.354 29.1155 127.362 28.3865C 126.37 27.666 125.891 26.5768 125.925 25.1189ZM 127.82 17.007C 127.82 18.7786 128.171 20.0712 128.875 20.8849C 129.578 21.6987 130.46 22.1055 131.519 22.1055C 132.571 22.1055 133.452 21.7029 134.164 20.8976C 134.876 20.0839 135.232 18.8125 135.232 17.0833C 135.232 15.4304 134.863 14.1844 134.126 13.3452C 133.397 12.506 132.515 12.0865 131.481 12.0865C 130.464 12.0865 129.6 12.5018 128.888 13.3325C 128.176 14.1547 127.82 15.3795 127.82 17.007ZM 149.65 22.3344C 148.803 23.0549 147.985 23.5635 147.197 23.8601C 146.417 24.1568 145.578 24.3051 144.679 24.3051C 143.196 24.3051 142.056 23.9449 141.259 23.2244C 140.462 22.4954 140.064 21.5673 140.064 20.4399C 140.064 19.7788 140.212 19.1769 140.509 18.6345C 140.814 18.0835 141.208 17.6427 141.691 17.3121C 142.183 16.9816 142.734 16.7315 143.344 16.562C 143.793 16.4433 144.471 16.3289 145.378 16.2187C 147.226 15.9983 148.587 15.7355 149.46 15.4304C 149.468 15.1168 149.472 14.9176 149.472 14.8328C 149.472 13.9004 149.256 13.2435 148.824 12.862C 148.239 12.345 147.37 12.0865 146.218 12.0865C 145.141 12.0865 144.344 12.2772 143.827 12.6586C 143.319 13.0316 142.941 13.697 142.696 14.6548L 140.458 14.3496C 140.661 13.3918 140.996 12.6205 141.462 12.0356C 141.928 11.4422 142.602 10.9888 143.484 10.6751C 144.365 10.353 145.387 10.192 146.548 10.192C 147.701 10.192 148.638 10.3276 149.358 10.5988C 150.079 10.8701 150.608 11.2134 150.947 11.6287C 151.286 12.0356 151.524 12.5527 151.659 13.1799C 151.736 13.5698 151.774 14.2734 151.774 15.2905L 151.774 18.342C 151.774 20.4696 151.82 21.8173 151.914 22.3852C 152.015 22.9447 152.21 23.4829 152.499 24L 150.108 24C 149.871 23.5253 149.718 22.9701 149.65 22.3344ZM 149.46 17.2231C 148.629 17.5622 147.383 17.8504 145.722 18.0877C 144.781 18.2233 144.115 18.3759 143.725 18.5455C 143.336 18.715 143.035 18.965 142.823 19.2956C 142.611 19.6177 142.505 19.978 142.505 20.3763C 142.505 20.9866 142.734 21.4952 143.191 21.9021C 143.658 22.309 144.336 22.5124 145.226 22.5124C 146.107 22.5124 146.891 22.3217 147.578 21.9402C 148.265 21.5503 148.769 21.0206 149.091 20.3509C 149.337 19.8339 149.46 19.071 149.46 18.0623L 149.46 17.2231ZM 155.308 24L 155.308 10.4971L 157.368 10.4971L 157.368 12.5442C 157.894 11.5863 158.377 10.9549 158.818 10.6497C 159.267 10.3446 159.759 10.192 160.293 10.192C 161.064 10.192 161.848 10.4378 162.645 10.9294L 161.856 13.0528C 161.297 12.7222 160.738 12.5569 160.178 12.5569C 159.678 12.5569 159.229 12.7095 158.83 13.0146C 158.432 13.3113 158.148 13.7266 157.978 14.2606C 157.724 15.0744 157.597 15.9644 157.597 16.9307L 157.597 24L 155.308 24ZM 163.153 17.2486C 163.153 14.748 163.848 12.8959 165.239 11.6923C 166.4 10.6921 167.815 10.192 169.485 10.192C 171.342 10.192 172.859 10.8023 174.037 12.0229C 175.215 13.235 175.804 14.9133 175.804 17.0578C 175.804 18.7955 175.542 20.1644 175.016 21.1647C 174.499 22.1564 173.74 22.9277 172.74 23.4787C 171.748 24.0297 170.663 24.3051 169.485 24.3051C 167.595 24.3051 166.065 23.6991 164.895 22.487C 163.734 21.2748 163.153 19.5287 163.153 17.2486ZM 165.506 17.2486C 165.506 18.9777 165.883 20.2746 166.637 21.1392C 167.392 21.9953 168.341 22.4234 169.485 22.4234C 170.621 22.4234 171.566 21.9911 172.321 21.1265C 173.075 20.2619 173.452 18.9438 173.452 17.1723C 173.452 15.5024 173.071 14.2395 172.308 13.3833C 171.553 12.5187 170.613 12.0865 169.485 12.0865C 168.341 12.0865 167.392 12.5145 166.637 13.3706C 165.883 14.2267 165.506 15.5194 165.506 17.2486ZM 183.497 21.953L 183.827 23.9746C 183.183 24.1102 182.607 24.178 182.098 24.178C 181.267 24.178 180.623 24.0466 180.165 23.7839C 179.708 23.5211 179.386 23.1778 179.199 22.754C 179.013 22.3217 178.919 21.4189 178.919 20.0458L 178.919 12.2772L 177.241 12.2772L 177.241 10.4971L 178.919 10.4971L 178.919 7.1532L 181.195 5.78002L 181.195 10.4971L 183.497 10.4971L 183.497 12.2772L 181.195 12.2772L 181.195 20.1729C 181.195 20.8256 181.233 21.2452 181.31 21.4317C 181.394 21.6181 181.526 21.7665 181.704 21.8767C 181.89 21.9869 182.153 22.042 182.492 22.042C 182.746 22.042 183.081 22.0123 183.497 21.953ZM 194.558 22.3344C 193.711 23.0549 192.893 23.5635 192.104 23.8601C 191.325 24.1568 190.485 24.3051 189.587 24.3051C 188.104 24.3051 186.963 23.9449 186.167 23.2244C 185.37 22.4954 184.972 21.5673 184.972 20.4399C 184.972 19.7788 185.12 19.1769 185.417 18.6345C 185.722 18.0835 186.116 17.6427 186.599 17.3121C 187.091 16.9816 187.642 16.7315 188.252 16.562C 188.701 16.4433 189.379 16.3289 190.286 16.2187C 192.134 15.9983 193.495 15.7355 194.368 15.4304C 194.376 15.1168 194.38 14.9176 194.38 14.8328C 194.38 13.9004 194.164 13.2435 193.732 12.862C 193.147 12.345 192.278 12.0865 191.125 12.0865C 190.049 12.0865 189.252 12.2772 188.735 12.6586C 188.226 13.0316 187.849 13.697 187.603 14.6548L 185.366 14.3496C 185.569 13.3918 185.904 12.6205 186.37 12.0356C 186.836 11.4422 187.51 10.9888 188.392 10.6751C 189.273 10.353 190.295 10.192 191.456 10.192C 192.609 10.192 193.545 10.3276 194.266 10.5988C 194.986 10.8701 195.516 11.2134 195.855 11.6287C 196.194 12.0356 196.432 12.5527 196.567 13.1799C 196.644 13.5698 196.682 14.2734 196.682 15.2905L 196.682 18.342C 196.682 20.4696 196.728 21.8173 196.822 22.3852C 196.923 22.9447 197.118 23.4829 197.406 24L 195.016 24C 194.779 23.5253 194.626 22.9701 194.558 22.3344ZM 194.368 17.2231C 193.537 17.5622 192.291 17.8504 190.63 18.0877C 189.689 18.2233 189.023 18.3759 188.633 18.5455C 188.243 18.715 187.943 18.965 187.731 19.2956C 187.519 19.6177 187.413 19.978 187.413 20.3763C 187.413 20.9866 187.642 21.4952 188.099 21.9021C 188.566 22.309 189.244 22.5124 190.134 22.5124C 191.015 22.5124 191.799 22.3217 192.486 21.9402C 193.172 21.5503 193.677 21.0206 193.999 20.3509C 194.245 19.8339 194.368 19.071 194.368 18.0623L 194.368 17.2231ZM 199.326 19.9695L 201.589 19.6135C 201.717 20.5204 202.068 21.2155 202.645 21.6987C 203.23 22.1818 204.043 22.4234 205.086 22.4234C 206.137 22.4234 206.917 22.2115 207.425 21.7877C 207.934 21.3554 208.188 20.851 208.188 20.2746C 208.188 19.7576 207.964 19.3507 207.514 19.054C 207.201 18.8506 206.421 18.5921 205.175 18.2784C 203.497 17.8546 202.331 17.4901 201.678 17.185C 201.034 16.8714 200.543 16.4433 200.204 15.9008C 199.873 15.3499 199.708 14.7438 199.708 14.0826C 199.708 13.4808 199.843 12.9256 200.115 12.417C 200.394 11.9 200.771 11.4719 201.246 11.1329C 201.602 10.8701 202.085 10.6497 202.696 10.4717C 203.314 10.2852 203.976 10.192 204.679 10.192C 205.739 10.192 206.667 10.3446 207.464 10.6497C 208.269 10.9549 208.862 11.3702 209.244 11.8957C 209.625 12.4128 209.888 13.1079 210.032 13.9809L 207.794 14.2861C 207.692 13.591 207.396 13.0485 206.904 12.6586C 206.421 12.2687 205.734 12.0737 204.844 12.0737C 203.793 12.0737 203.043 12.2475 202.594 12.595C 202.145 12.9426 201.92 13.3494 201.92 13.8156C 201.92 14.1123 202.013 14.3793 202.2 14.6166C 202.386 14.8625 202.679 15.0659 203.077 15.2269C 203.306 15.3117 203.98 15.5067 205.099 15.8118C 206.718 16.2441 207.845 16.6001 208.481 16.8798C 209.125 17.1511 209.629 17.5495 209.994 18.075C 210.358 18.6005 210.541 19.2532 210.541 20.0331C 210.541 20.7959 210.316 21.5164 209.867 22.1945C 209.426 22.8642 208.786 23.3855 207.947 23.7584C 207.108 24.1229 206.158 24.3051 205.099 24.3051C 203.344 24.3051 202.005 23.9407 201.081 23.2117C 200.165 22.4827 199.581 21.402 199.326 19.9695ZM 211.151 29.1748L 211.151 27.5219L 226.319 27.5219L 226.319 29.1748L 211.151 29.1748ZM 236.567 19.054L 238.818 19.3465C 238.572 20.8976 237.94 22.114 236.923 22.9955C 235.915 23.8686 234.673 24.3051 233.198 24.3051C 231.35 24.3051 229.862 23.7033 228.735 22.4997C 227.616 21.2876 227.057 19.5541 227.057 17.2994C 227.057 15.8415 227.298 14.5658 227.781 13.4723C 228.265 12.3789 228.998 11.5609 229.981 11.0184C 230.973 10.4675 232.049 10.192 233.211 10.192C 234.677 10.192 235.876 10.5649 236.809 11.3109C 237.741 12.0483 238.339 13.0994 238.602 14.4641L 236.377 14.8074C 236.165 13.9004 235.787 13.218 235.245 12.7603C 234.711 12.3026 234.062 12.0737 233.3 12.0737C 232.147 12.0737 231.21 12.4891 230.49 13.3198C 229.769 14.142 229.409 15.4473 229.409 17.2359C 229.409 19.0498 229.756 20.3679 230.452 21.1901C 231.147 22.0123 232.054 22.4234 233.172 22.4234C 234.071 22.4234 234.821 22.1479 235.423 21.5969C 236.025 21.046 236.406 20.1983 236.567 19.054ZM 239.924 17.2486C 239.924 14.748 240.619 12.8959 242.009 11.6923C 243.17 10.6921 244.586 10.192 246.256 10.192C 248.112 10.192 249.629 10.8023 250.808 12.0229C 251.986 13.235 252.575 14.9133 252.575 17.0578C 252.575 18.7955 252.312 20.1644 251.787 21.1647C 251.27 22.1564 250.511 22.9277 249.511 23.4787C 248.519 24.0297 247.434 24.3051 246.256 24.3051C 244.366 24.3051 242.836 23.6991 241.666 22.487C 240.505 21.2748 239.924 19.5287 239.924 17.2486ZM 242.276 17.2486C 242.276 18.9777 242.653 20.2746 243.408 21.1392C 244.162 21.9953 245.111 22.4234 246.256 22.4234C 247.392 22.4234 248.337 21.9911 249.091 21.1265C 249.845 20.2619 250.223 18.9438 250.223 17.1723C 250.223 15.5024 249.841 14.2395 249.078 13.3833C 248.324 12.5187 247.383 12.0865 246.256 12.0865C 245.111 12.0865 244.162 12.5145 243.408 13.3706C 242.653 14.2267 242.276 15.5194 242.276 17.2486ZM 255.27 24L 255.27 10.4971L 257.33 10.4971L 257.33 12.417C 258.322 10.9337 259.754 10.192 261.628 10.192C 262.441 10.192 263.187 10.3403 263.865 10.637C 264.552 10.9252 265.065 11.3066 265.404 11.7813C 265.743 12.256 265.98 12.8197 266.116 13.4723C 266.201 13.8962 266.243 14.6378 266.243 15.6974L 266.243 24L 263.954 24L 263.954 15.7864C 263.954 14.854 263.865 14.1589 263.687 13.7012C 263.509 13.235 263.192 12.8663 262.734 12.595C 262.285 12.3153 261.755 12.1755 261.145 12.1755C 260.17 12.1755 259.326 12.4848 258.614 13.1036C 257.911 13.7224 257.559 14.8964 257.559 16.6256L 257.559 24L 255.27 24ZM 269.765 24L 269.765 5.36044L 272.054 5.36044L 272.054 12.0483C 273.122 10.8108 274.469 10.192 276.097 10.192C 277.097 10.192 277.966 10.3912 278.703 10.7896C 279.441 11.1795 279.966 11.722 280.28 12.417C 280.602 13.1121 280.763 14.1208 280.763 15.4431L 280.763 24L 278.474 24L 278.474 15.4431C 278.474 14.2988 278.224 13.4681 277.724 12.951C 277.233 12.4255 276.533 12.1627 275.626 12.1627C 274.948 12.1627 274.308 12.3407 273.707 12.6967C 273.113 13.0443 272.689 13.519 272.435 14.1208C 272.181 14.7226 272.054 15.5533 272.054 16.6128L 272.054 24L 269.765 24ZM 293.503 19.6516L 295.868 19.9441C 295.495 21.3257 294.804 22.398 293.796 23.1608C 292.787 23.9237 291.498 24.3051 289.93 24.3051C 287.955 24.3051 286.387 23.6991 285.226 22.487C 284.073 21.2664 283.497 19.5584 283.497 17.363C 283.497 15.0913 284.082 13.3282 285.251 12.0737C 286.421 10.8192 287.938 10.192 289.803 10.192C 291.609 10.192 293.083 10.8065 294.228 12.0356C 295.372 13.2647 295.944 14.9938 295.944 17.2231C 295.944 17.3588 295.94 17.5622 295.932 17.8334L 285.862 17.8334C 285.946 19.3168 286.366 20.4526 287.12 21.2409C 287.875 22.0292 288.816 22.4234 289.943 22.4234C 290.782 22.4234 291.498 22.203 292.092 21.7622C 292.685 21.3215 293.156 20.6179 293.503 19.6516ZM 285.989 15.9517L 293.529 15.9517C 293.427 14.8158 293.139 13.964 292.664 13.3961C 291.935 12.5145 290.99 12.0737 289.829 12.0737C 288.777 12.0737 287.892 12.4255 287.171 13.129C 286.459 13.8326 286.065 14.7735 285.989 15.9517ZM 307.565 19.054L 309.816 19.3465C 309.57 20.8976 308.939 22.114 307.921 22.9955C 306.913 23.8686 305.671 24.3051 304.196 24.3051C 302.348 24.3051 300.861 23.7033 299.733 22.4997C 298.614 21.2876 298.055 19.5541 298.055 17.2994C 298.055 15.8415 298.296 14.5658 298.78 13.4723C 299.263 12.3789 299.996 11.5609 300.979 11.0184C 301.971 10.4675 303.047 10.192 304.209 10.192C 305.675 10.192 306.875 10.5649 307.807 11.3109C 308.739 12.0483 309.337 13.0994 309.6 14.4641L 307.375 14.8074C 307.163 13.9004 306.786 13.218 306.243 12.7603C 305.709 12.3026 305.061 12.0737 304.298 12.0737C 303.145 12.0737 302.208 12.4891 301.488 13.3198C 300.767 14.142 300.407 15.4473 300.407 17.2359C 300.407 19.0498 300.755 20.3679 301.45 21.1901C 302.145 22.0123 303.052 22.4234 304.171 22.4234C 305.069 22.4234 305.819 22.1479 306.421 21.5969C 307.023 21.046 307.404 20.1983 307.565 19.054ZM 311.787 7.99236L 311.787 5.36044L 314.075 5.36044L 314.075 7.99236L 311.787 7.99236ZM 311.787 24L 311.787 10.4971L 314.075 10.4971L 314.075 24L 311.787 24ZM 317.572 24L 317.572 10.4971L 319.619 10.4971L 319.619 12.3916C 320.043 11.7304 320.606 11.2007 321.31 10.8023C 322.013 10.3954 322.814 10.192 323.713 10.192C 324.713 10.192 325.531 10.3997 326.167 10.815C 326.811 11.2303 327.264 11.811 327.527 12.5569C 328.595 10.9803 329.985 10.192 331.698 10.192C 333.037 10.192 334.067 10.5649 334.787 11.3109C 335.508 12.0483 335.868 13.1884 335.868 14.7311L 335.868 24L 333.592 24L 333.592 15.494C 333.592 14.5785 333.516 13.9216 333.363 13.5232C 333.219 13.1163 332.952 12.79 332.562 12.5442C 332.172 12.2984 331.715 12.1755 331.189 12.1755C 330.24 12.1755 329.451 12.4933 328.824 13.129C 328.197 13.7563 327.883 14.765 327.883 16.1551L 327.883 24L 325.595 24L 325.595 15.2269C 325.595 14.2098 325.408 13.4469 325.035 12.9383C 324.662 12.4297 324.052 12.1755 323.204 12.1755C 322.56 12.1755 321.963 12.345 321.412 12.684C 320.869 13.0231 320.475 13.519 320.229 14.1716C 319.983 14.8243 319.86 15.7652 319.86 16.9943L 319.86 24L 317.572 24ZM 348.506 19.6516L 350.871 19.9441C 350.498 21.3257 349.807 22.398 348.799 23.1608C 347.79 23.9237 346.502 24.3051 344.933 24.3051C 342.958 24.3051 341.39 23.6991 340.229 22.487C 339.076 21.2664 338.5 19.5584 338.5 17.363C 338.5 15.0913 339.085 13.3282 340.255 12.0737C 341.424 10.8192 342.942 10.192 344.806 10.192C 346.612 10.192 348.087 10.8065 349.231 12.0356C 350.375 13.2647 350.947 14.9938 350.947 17.2231C 350.947 17.3588 350.943 17.5622 350.935 17.8334L 340.865 17.8334C 340.95 19.3168 341.369 20.4526 342.124 21.2409C 342.878 22.0292 343.819 22.4234 344.946 22.4234C 345.785 22.4234 346.502 22.203 347.095 21.7622C 347.688 21.3215 348.159 20.6179 348.506 19.6516ZM 340.992 15.9517L 348.532 15.9517C 348.43 14.8158 348.142 13.964 347.667 13.3961C 346.938 12.5145 345.993 12.0737 344.832 12.0737C 343.781 12.0737 342.895 12.4255 342.174 13.129C 341.462 13.8326 341.068 14.7735 340.992 15.9517ZM 353.757 24L 353.757 10.4971L 355.817 10.4971L 355.817 12.417C 356.809 10.9337 358.241 10.192 360.115 10.192C 360.928 10.192 361.674 10.3403 362.352 10.637C 363.039 10.9252 363.552 11.3066 363.891 11.7813C 364.23 12.256 364.467 12.8197 364.603 13.4723C 364.688 13.8962 364.73 14.6378 364.73 15.6974L 364.73 24L 362.441 24L 362.441 15.7864C 362.441 14.854 362.352 14.1589 362.174 13.7012C 361.996 13.235 361.679 12.8663 361.221 12.595C 360.772 12.3153 360.242 12.1755 359.632 12.1755C 358.657 12.1755 357.813 12.4848 357.101 13.1036C 356.398 13.7224 356.046 14.8964 356.046 16.6256L 356.046 24L 353.757 24ZM 373.249 21.953L 373.579 23.9746C 372.935 24.1102 372.359 24.178 371.85 24.178C 371.02 24.178 370.375 24.0466 369.918 23.7839C 369.46 23.5211 369.138 23.1778 368.951 22.754C 368.765 22.3217 368.672 21.4189 368.672 20.0458L 368.672 12.2772L 366.993 12.2772L 366.993 10.4971L 368.672 10.4971L 368.672 7.1532L 370.948 5.78002L 370.948 10.4971L 373.249 10.4971L 373.249 12.2772L 370.948 12.2772L 370.948 20.1729C 370.948 20.8256 370.986 21.2452 371.062 21.4317C 371.147 21.6181 371.278 21.7665 371.456 21.8767C 371.643 21.9869 371.905 22.042 372.244 22.042C 372.499 22.042 372.834 22.0123 373.249 21.953ZM 374.647 17.2486C 374.647 14.748 375.343 12.8959 376.733 11.6923C 377.894 10.6921 379.309 10.192 380.979 10.192C 382.836 10.192 384.353 10.8023 385.531 12.0229C 386.709 13.235 387.298 14.9133 387.298 17.0578C 387.298 18.7955 387.036 20.1644 386.51 21.1647C 385.993 22.1564 385.234 22.9277 384.234 23.4787C 383.243 24.0297 382.158 24.3051 380.979 24.3051C 379.089 24.3051 377.559 23.6991 376.389 22.487C 375.228 21.2748 374.647 19.5287 374.647 17.2486ZM 377 17.2486C 377 18.9777 377.377 20.2746 378.131 21.1392C 378.886 21.9953 379.835 22.4234 380.979 22.4234C 382.115 22.4234 383.06 21.9911 383.815 21.1265C 384.569 20.2619 384.946 18.9438 384.946 17.1723C 384.946 15.5024 384.565 14.2395 383.802 13.3833C 383.048 12.5187 382.107 12.0865 380.979 12.0865C 379.835 12.0865 378.886 12.5145 378.131 13.3706C 377.377 14.2267 377 15.5194 377 17.2486ZM 387.883 29.1748L 387.883 27.5219L 403.052 27.5219L 403.052 29.1748L 387.883 29.1748ZM 404.781 24L 404.781 5.36044L 411.812 5.36044C 413.05 5.36044 413.995 5.41978 414.647 5.53845C 415.563 5.69102 416.33 5.98346 416.949 6.41575C 417.568 6.83957 418.063 7.43716 418.436 8.20851C 418.818 8.97986 419.009 9.8275 419.009 10.7514C 419.009 12.3365 418.504 13.68 417.496 14.7819C 416.487 15.8754 414.664 16.4221 412.028 16.4221L 407.248 16.4221L 407.248 24L 404.781 24ZM 407.248 14.2225L 412.066 14.2225C 413.66 14.2225 414.792 13.9258 415.461 13.3325C 416.131 12.7391 416.466 11.9042 416.466 10.8277C 416.466 10.0479 416.266 9.38249 415.868 8.83152C 415.478 8.27208 414.961 7.90336 414.317 7.72535C 413.902 7.61516 413.134 7.56006 412.016 7.56006L 407.248 7.56006L 407.248 14.2225ZM 421.755 29.2003L 421.501 27.0515C 422.001 27.1871 422.437 27.2549 422.81 27.2549C 423.319 27.2549 423.726 27.1702 424.031 27.0006C 424.336 26.8311 424.586 26.5938 424.781 26.2886C 424.925 26.0598 425.158 25.4918 425.48 24.5849C 425.523 24.4577 425.59 24.2712 425.684 24.0254L 420.56 10.4971L 423.026 10.4971L 425.836 18.3166C 426.201 19.3083 426.527 20.3509 426.815 21.4444C 427.078 20.3933 427.392 19.3677 427.756 18.3674L 430.642 10.4971L 432.931 10.4971L 427.794 24.2289C 427.243 25.7122 426.815 26.7336 426.51 27.2931C 426.103 28.0475 425.637 28.5984 425.112 28.946C 424.586 29.302 423.959 29.48 423.23 29.48C 422.789 29.48 422.297 29.3867 421.755 29.2003ZM 439.873 21.953L 440.204 23.9746C 439.56 24.1102 438.983 24.178 438.475 24.178C 437.644 24.178 437 24.0466 436.542 23.7839C 436.084 23.5211 435.762 23.1778 435.576 22.754C 435.389 22.3217 435.296 21.4189 435.296 20.0458L 435.296 12.2772L 433.618 12.2772L 433.618 10.4971L 435.296 10.4971L 435.296 7.1532L 437.572 5.78002L 437.572 10.4971L 439.873 10.4971L 439.873 12.2772L 437.572 12.2772L 437.572 20.1729C 437.572 20.8256 437.61 21.2452 437.686 21.4317C 437.771 21.6181 437.902 21.7665 438.08 21.8767C 438.267 21.9869 438.53 22.042 438.869 22.042C 439.123 22.042 439.458 22.0123 439.873 21.953ZM 442.124 24L 442.124 5.36044L 444.412 5.36044L 444.412 12.0483C 445.48 10.8108 446.828 10.192 448.456 10.192C 449.456 10.192 450.325 10.3912 451.062 10.7896C 451.799 11.1795 452.325 11.722 452.639 12.417C 452.961 13.1121 453.122 14.1208 453.122 15.4431L 453.122 24L 450.833 24L 450.833 15.4431C 450.833 14.2988 450.583 13.4681 450.083 12.951C 449.591 12.4255 448.892 12.1627 447.985 12.1627C 447.307 12.1627 446.667 12.3407 446.065 12.6967C 445.472 13.0443 445.048 13.519 444.794 14.1208C 444.539 14.7226 444.412 15.5533 444.412 16.6128L 444.412 24L 442.124 24ZM 455.766 17.2486C 455.766 14.748 456.461 12.8959 457.852 11.6923C 459.013 10.6921 460.428 10.192 462.098 10.192C 463.955 10.192 465.472 10.8023 466.65 12.0229C 467.828 13.235 468.417 14.9133 468.417 17.0578C 468.417 18.7955 468.155 20.1644 467.629 21.1647C 467.112 22.1564 466.353 22.9277 465.353 23.4787C 464.361 24.0297 463.276 24.3051 462.098 24.3051C 460.208 24.3051 458.678 23.6991 457.508 22.487C 456.347 21.2748 455.766 19.5287 455.766 17.2486ZM 458.119 17.2486C 458.119 18.9777 458.496 20.2746 459.25 21.1392C 460.005 21.9953 460.954 22.4234 462.098 22.4234C 463.234 22.4234 464.179 21.9911 464.934 21.1265C 465.688 20.2619 466.065 18.9438 466.065 17.1723C 466.065 15.5024 465.684 14.2395 464.921 13.3833C 464.166 12.5187 463.226 12.0865 462.098 12.0865C 460.954 12.0865 460.005 12.5145 459.25 13.3706C 458.496 14.2267 458.119 15.5194 458.119 17.2486ZM 471.113 24L 471.113 10.4971L 473.173 10.4971L 473.173 12.417C 474.164 10.9337 475.597 10.192 477.47 10.192C 478.284 10.192 479.03 10.3403 479.708 10.637C 480.394 10.9252 480.907 11.3066 481.246 11.7813C 481.585 12.256 481.823 12.8197 481.958 13.4723C 482.043 13.8962 482.086 14.6378 482.086 15.6974L 482.086 24L 479.797 24L 479.797 15.7864C 479.797 14.854 479.708 14.1589 479.53 13.7012C 479.352 13.235 479.034 12.8663 478.576 12.595C 478.127 12.3153 477.597 12.1755 476.987 12.1755C 476.012 12.1755 475.169 12.4848 474.457 13.1036C 473.753 13.7224 473.401 14.8964 473.401 16.6256L 473.401 24L 471.113 24Z"/>
<path id="path6_fill" d="M 489.981 29.48C 488.718 27.8864 487.65 26.0216 486.777 23.8856C 485.904 21.7495 485.468 19.5372 485.468 17.2486C 485.468 15.2312 485.794 13.2986 486.447 11.4507C 487.21 9.3062 488.388 7.17015 489.981 5.04258L 491.621 5.04258C 490.596 6.80567 489.918 8.06441 489.587 8.81881C 489.07 9.98855 488.663 11.2091 488.367 12.4806C 488.002 14.0657 487.82 15.6592 487.82 17.2613C 487.82 21.3384 489.087 25.4113 491.621 29.48L 489.981 29.48ZM 495.779 29.48L 494.139 29.48C 496.673 25.4113 497.941 21.3384 497.941 17.2613C 497.941 15.6677 497.758 14.0869 497.394 12.5187C 497.106 11.2473 496.703 10.0267 496.186 8.85695C 495.855 8.09408 495.173 6.82262 494.139 5.04258L 495.779 5.04258C 497.373 7.17015 498.551 9.3062 499.314 11.4507C 499.966 13.2986 500.293 15.2312 500.293 17.2486C 500.293 19.5372 499.852 21.7495 498.97 23.8856C 498.097 26.0216 497.034 27.8864 495.779 29.48ZM 503.586 13.1036L 503.586 10.4971L 506.192 10.4971L 506.192 13.1036L 503.586 13.1036ZM 503.586 24L 503.586 21.3935L 506.192 21.3935L 506.192 24L 503.586 24ZM 39.5169 52.3344C 38.6692 53.0549 37.8513 53.5635 37.063 53.8601C 36.2831 54.1568 35.444 54.3051 34.5455 54.3051C 33.0621 54.3051 31.922 53.9449 31.1253 53.2244C 30.3285 52.4954 29.9301 51.5673 29.9301 50.4399C 29.9301 49.7788 30.0784 49.1769 30.3751 48.6345C 30.6803 48.0835 31.0744 47.6427 31.5576 47.3121C 32.0492 46.9816 32.6002 46.7315 33.2105 46.562C 33.6597 46.4433 34.3378 46.3289 35.2448 46.2187C 37.0926 45.9983 38.4531 45.7355 39.3262 45.4304C 39.3346 45.1168 39.3389 44.9176 39.3389 44.8328C 39.3389 43.9004 39.1227 43.2435 38.6904 42.862C 38.1056 42.345 37.2367 42.0865 36.0839 42.0865C 35.0074 42.0865 34.2107 42.2772 33.6936 42.6586C 33.185 43.0316 32.8078 43.697 32.562 44.6548L 30.3242 44.3496C 30.5277 43.3918 30.8625 42.6205 31.3287 42.0356C 31.7949 41.4422 32.4688 40.9888 33.3503 40.6751C 34.2319 40.353 35.2533 40.192 36.4145 40.192C 37.5673 40.192 38.5039 40.3276 39.2244 40.5988C 39.9449 40.8701 40.4747 41.2134 40.8138 41.6287C 41.1528 42.0356 41.3902 42.5527 41.5258 43.1799C 41.6021 43.5698 41.6402 44.2734 41.6402 45.2905L 41.6402 48.342C 41.6402 50.4696 41.6868 51.8173 41.7801 52.3852C 41.8818 52.9447 42.0767 53.4829 42.3649 54L 39.9746 54C 39.7373 53.5253 39.5847 52.9701 39.5169 52.3344ZM 39.3262 47.2231C 38.4955 47.5622 37.2494 47.8504 35.5881 48.0877C 34.6472 48.2233 33.9818 48.3759 33.5919 48.5455C 33.202 48.715 32.9011 48.965 32.6892 49.2956C 32.4772 49.6177 32.3713 49.978 32.3713 50.3763C 32.3713 50.9866 32.6002 51.4952 33.0579 51.9021C 33.5241 52.309 34.2022 52.5124 35.0922 52.5124C 35.9737 52.5124 36.7578 52.3217 37.4444 51.9402C 38.131 51.5503 38.6353 51.0206 38.9574 50.3509C 39.2032 49.8339 39.3262 49.071 39.3262 48.0623L 39.3262 47.2231ZM 45.2003 59.1748L 45.2003 40.4971L 47.2855 40.4971L 47.2855 42.2517C 47.7771 41.5652 48.3323 41.0523 48.9511 40.7133C 49.5699 40.3657 50.32 40.192 51.2016 40.192C 52.3544 40.192 53.3715 40.4887 54.2531 41.082C 55.1346 41.6753 55.8 42.5145 56.2492 43.5995C 56.6985 44.676 56.9231 45.8584 56.9231 47.1468C 56.9231 48.5285 56.6731 49.7745 56.173 50.8849C 55.6813 51.9869 54.9608 52.8345 54.0115 53.4278C 53.0706 54.0127 52.0789 54.3051 51.0363 54.3051C 50.2734 54.3051 49.5868 54.1441 48.9765 53.822C 48.3747 53.4999 47.8788 53.093 47.4889 52.6014L 47.4889 59.1748L 45.2003 59.1748ZM 47.2728 47.3249C 47.2728 49.0625 47.6245 50.3467 48.3281 51.1774C 49.0316 52.0081 49.8835 52.4234 50.8837 52.4234C 51.9009 52.4234 52.7697 51.9953 53.4902 51.1392C 54.2192 50.2746 54.5836 48.9396 54.5836 47.1341C 54.5836 45.4134 54.2276 44.125 53.5156 43.2689C 52.8121 42.4128 51.9687 41.9847 50.9854 41.9847C 50.0106 41.9847 49.146 42.4425 48.3916 43.3579C 47.6457 44.2649 47.2728 45.5872 47.2728 47.3249ZM 59.6695 54L 59.6695 40.4971L 61.7292 40.4971L 61.7292 42.5442C 62.2548 41.5863 62.7379 40.9549 63.1787 40.6497C 63.6279 40.3446 64.1196 40.192 64.6536 40.192C 65.4249 40.192 66.209 40.4378 67.0058 40.9294L 66.2175 43.0528C 65.658 42.7222 65.0986 42.5569 64.5391 42.5569C 64.039 42.5569 63.5898 42.7095 63.1914 43.0146C 62.793 43.3113 62.5091 43.7266 62.3395 44.2606C 62.0852 45.0744 61.9581 45.9644 61.9581 46.9307L 61.9581 54L 59.6695 54ZM 77.6097 49.6516L 79.9746 49.9441C 79.6017 51.3257 78.9108 52.398 77.9022 53.1608C 76.8935 53.9237 75.6051 54.3051 74.0369 54.3051C 72.0619 54.3051 70.4938 53.6991 69.3325 52.487C 68.1798 51.2664 67.6034 49.5584 67.6034 47.363C 67.6034 45.0913 68.1882 43.3282 69.358 42.0737C 70.5277 40.8192 72.045 40.192 73.9098 40.192C 75.7153 40.192 77.1901 40.8065 78.3345 42.0356C 79.4788 43.2647 80.0509 44.9938 80.0509 47.2231C 80.0509 47.3588 80.0467 47.5622 80.0382 47.8334L 69.9683 47.8334C 70.053 49.3168 70.4726 50.4526 71.227 51.2409C 71.9814 52.0292 72.9223 52.4234 74.0496 52.4234C 74.8888 52.4234 75.6051 52.203 76.1984 51.7622C 76.7918 51.3215 77.2622 50.6179 77.6097 49.6516ZM 70.0954 45.9517L 77.6352 45.9517C 77.5334 44.8158 77.2452 43.964 76.7706 43.3961C 76.0416 42.5145 75.0965 42.0737 73.9352 42.0737C 72.8841 42.0737 71.9984 42.4255 71.2779 43.129C 70.5659 43.8326 70.1717 44.7735 70.0954 45.9517ZM 82.8608 54L 82.8608 40.4971L 84.9206 40.4971L 84.9206 42.417C 85.9123 40.9337 87.3448 40.192 89.2181 40.192C 90.0319 40.192 90.7778 40.3403 91.4559 40.637C 92.1425 40.9252 92.6553 41.3066 92.9943 41.7813C 93.3334 42.256 93.5707 42.8197 93.7064 43.4723C 93.7911 43.8962 93.8335 44.6378 93.8335 45.6974L 93.8335 54L 91.5449 54L 91.5449 45.7864C 91.5449 44.854 91.4559 44.1589 91.2779 43.7012C 91.0999 43.235 90.782 42.8663 90.3243 42.595C 89.875 42.3153 89.3453 42.1755 88.735 42.1755C 87.7602 42.1755 86.9168 42.4848 86.2048 43.1036C 85.5012 43.7224 85.1495 44.8964 85.1495 46.6256L 85.1495 54L 82.8608 54ZM 106.116 54L 106.116 52.2962C 105.26 53.6355 104.001 54.3051 102.34 54.3051C 101.263 54.3051 100.271 54.0085 99.3643 53.4151C 98.4658 52.8218 97.7665 51.9953 97.2664 50.9358C 96.7748 49.8678 96.529 48.6429 96.529 47.2613C 96.529 45.9135 96.7536 44.6929 97.2029 43.5995C 97.6521 42.4976 98.326 41.6542 99.2245 41.0693C 100.123 40.4844 101.127 40.192 102.238 40.192C 103.052 40.192 103.776 40.3657 104.412 40.7133C 105.048 41.0523 105.565 41.4973 105.963 42.0483L 105.963 35.3604L 108.239 35.3604L 108.239 54L 106.116 54ZM 98.8812 47.2613C 98.8812 48.9905 99.2457 50.2831 99.9746 51.1392C 100.704 51.9953 101.564 52.4234 102.556 52.4234C 103.556 52.4234 104.404 52.0165 105.099 51.2028C 105.802 50.3806 106.154 49.1303 106.154 47.452C 106.154 45.6041 105.798 44.2479 105.086 43.3833C 104.374 42.5187 103.497 42.0865 102.454 42.0865C 101.437 42.0865 100.585 42.5018 99.8984 43.3325C 99.2202 44.1632 98.8812 45.4728 98.8812 47.2613ZM 111.863 37.9924L 111.863 35.3604L 114.151 35.3604L 114.151 37.9924L 111.863 37.9924ZM 111.863 54L 111.863 40.4971L 114.151 40.4971L 114.151 54L 111.863 54ZM 116.44 54L 116.44 52.1437L 125.035 42.2772C 124.06 42.328 123.2 42.3535 122.454 42.3535L 116.949 42.3535L 116.949 40.4971L 127.985 40.4971L 127.985 42.0102L 120.674 50.5798L 119.263 52.1437C 120.288 52.0674 121.25 52.0292 122.149 52.0292L 128.392 52.0292L 128.392 54L 116.44 54ZM 139.479 52.3344C 138.631 53.0549 137.813 53.5635 137.025 53.8601C 136.245 54.1568 135.406 54.3051 134.507 54.3051C 133.024 54.3051 131.884 53.9449 131.087 53.2244C 130.29 52.4954 129.892 51.5673 129.892 50.4399C 129.892 49.7788 130.04 49.1769 130.337 48.6345C 130.642 48.0835 131.036 47.6427 131.519 47.3121C 132.011 46.9816 132.562 46.7315 133.172 46.562C 133.622 46.4433 134.3 46.3289 135.207 46.2187C 137.055 45.9983 138.415 45.7355 139.288 45.4304C 139.297 45.1168 139.301 44.9176 139.301 44.8328C 139.301 43.9004 139.085 43.2435 138.652 42.862C 138.067 42.345 137.199 42.0865 136.046 42.0865C 134.969 42.0865 134.173 42.2772 133.656 42.6586C 133.147 43.0316 132.77 43.697 132.524 44.6548L 130.286 44.3496C 130.49 43.3918 130.824 42.6205 131.291 42.0356C 131.757 41.4422 132.431 40.9888 133.312 40.6751C 134.194 40.353 135.215 40.192 136.376 40.192C 137.529 40.192 138.466 40.3276 139.186 40.5988C 139.907 40.8701 140.437 41.2134 140.776 41.6287C 141.115 42.0356 141.352 42.5527 141.488 43.1799C 141.564 43.5698 141.602 44.2734 141.602 45.2905L 141.602 48.342C 141.602 50.4696 141.649 51.8173 141.742 52.3852C 141.844 52.9447 142.039 53.4829 142.327 54L 139.937 54C 139.699 53.5253 139.547 52.9701 139.479 52.3344ZM 139.288 47.2231C 138.457 47.5622 137.211 47.8504 135.55 48.0877C 134.609 48.2233 133.944 48.3759 133.554 48.5455C 133.164 48.715 132.863 48.965 132.651 49.2956C 132.439 49.6177 132.333 49.978 132.333 50.3763C 132.333 50.9866 132.562 51.4952 133.02 51.9021C 133.486 52.309 134.164 52.5124 135.054 52.5124C 135.936 52.5124 136.72 52.3217 137.406 51.9402C 138.093 51.5503 138.597 51.0206 138.919 50.3509C 139.165 49.8339 139.288 49.071 139.288 48.0623L 139.288 47.2231ZM 153.923 54L 153.923 52.2962C 153.066 53.6355 151.808 54.3051 150.146 54.3051C 149.07 54.3051 148.078 54.0085 147.171 53.4151C 146.273 52.8218 145.573 51.9953 145.073 50.9358C 144.582 49.8678 144.336 48.6429 144.336 47.2613C 144.336 45.9135 144.56 44.6929 145.01 43.5995C 145.459 42.4976 146.133 41.6542 147.031 41.0693C 147.93 40.4844 148.934 40.192 150.045 40.192C 150.858 40.192 151.583 40.3657 152.219 40.7133C 152.855 41.0523 153.372 41.4973 153.77 42.0483L 153.77 35.3604L 156.046 35.3604L 156.046 54L 153.923 54ZM 146.688 47.2613C 146.688 48.9905 147.052 50.2831 147.781 51.1392C 148.51 51.9953 149.371 52.4234 150.362 52.4234C 151.363 52.4234 152.21 52.0165 152.905 51.2028C 153.609 50.3806 153.961 49.1303 153.961 47.452C 153.961 45.6041 153.605 44.2479 152.893 43.3833C 152.181 42.5187 151.303 42.0865 150.261 42.0865C 149.244 42.0865 148.392 42.5018 147.705 43.3325C 147.027 44.1632 146.688 45.4728 146.688 47.2613ZM 158.805 47.2486C 158.805 44.748 159.5 42.8959 160.89 41.6923C 162.051 40.6921 163.467 40.192 165.137 40.192C 166.993 40.192 168.51 40.8023 169.689 42.0229C 170.867 43.235 171.456 44.9133 171.456 47.0578C 171.456 48.7955 171.193 50.1644 170.668 51.1647C 170.151 52.1564 169.392 52.9277 168.392 53.4787C 167.4 54.0297 166.315 54.3051 165.137 54.3051C 163.247 54.3051 161.717 53.6991 160.547 52.487C 159.386 51.2748 158.805 49.5287 158.805 47.2486ZM 161.157 47.2486C 161.157 48.9777 161.534 50.2746 162.289 51.1392C 163.043 51.9953 163.992 52.4234 165.137 52.4234C 166.273 52.4234 167.218 51.9911 167.972 51.1265C 168.727 50.2619 169.104 48.9438 169.104 47.1723C 169.104 45.5024 168.722 44.2395 167.959 43.3833C 167.205 42.5187 166.264 42.0865 165.137 42.0865C 163.992 42.0865 163.043 42.5145 162.289 43.3706C 161.534 44.2267 161.157 45.5194 161.157 47.2486ZM 193.439 43.04L 181.132 43.04L 181.132 40.904L 193.439 40.904L 193.439 43.04ZM 193.439 48.698L 181.132 48.698L 181.132 46.562L 193.439 46.562L 193.439 48.698ZM 211.837 54L 209.549 54L 209.549 39.4164C 208.998 39.9419 208.273 40.4675 207.375 40.993C 206.485 41.5185 205.684 41.9127 204.972 42.1755L 204.972 39.9631C 206.251 39.3613 207.37 38.6323 208.328 37.7762C 209.286 36.9201 209.964 36.0894 210.363 35.2842L 211.837 35.2842L 211.837 54ZM 217.712 44.8074C 217.712 42.6035 217.936 40.8319 218.385 39.4927C 218.843 38.1449 219.517 37.1066 220.407 36.3776C 221.306 35.6486 222.433 35.2842 223.789 35.2842C 224.789 35.2842 225.667 35.4876 226.421 35.8945C 227.175 36.2928 227.798 36.8735 228.29 37.6364C 228.782 38.3907 229.167 39.3147 229.447 40.4081C 229.727 41.4931 229.867 42.9595 229.867 44.8074C 229.867 46.9943 229.642 48.7616 229.193 50.1093C 228.744 51.4486 228.07 52.487 227.171 53.2244C 226.281 53.9534 225.154 54.3179 223.789 54.3179C 221.992 54.3179 220.581 53.6737 219.555 52.3852C 218.326 50.8341 217.712 48.3081 217.712 44.8074ZM 220.064 44.8074C 220.064 47.8673 220.42 49.9059 221.132 50.9231C 221.852 51.9318 222.738 52.4361 223.789 52.4361C 224.84 52.4361 225.722 51.9275 226.434 50.9104C 227.154 49.8932 227.514 47.8589 227.514 44.8074C 227.514 41.7389 227.154 39.7004 226.434 38.6917C 225.722 37.683 224.832 37.1786 223.764 37.1786C 222.713 37.1786 221.873 37.6236 221.246 38.5137C 220.458 39.6495 220.064 41.7474 220.064 44.8074ZM 232.206 44.8074C 232.206 42.6035 232.431 40.8319 232.88 39.4927C 233.338 38.1449 234.012 37.1066 234.902 36.3776C 235.8 35.6486 236.927 35.2842 238.284 35.2842C 239.284 35.2842 240.161 35.4876 240.916 35.8945C 241.67 36.2928 242.293 36.8735 242.785 37.6364C 243.276 38.3907 243.662 39.3147 243.942 40.4081C 244.221 41.4931 244.361 42.9595 244.361 44.8074C 244.361 46.9943 244.137 48.7616 243.687 50.1093C 243.238 51.4486 242.564 52.487 241.666 53.2244C 240.776 53.9534 239.648 54.3179 238.284 54.3179C 236.487 54.3179 235.075 53.6737 234.05 52.3852C 232.821 50.8341 232.206 48.3081 232.206 44.8074ZM 234.558 44.8074C 234.558 47.8673 234.914 49.9059 235.626 50.9231C 236.347 51.9318 237.233 52.4361 238.284 52.4361C 239.335 52.4361 240.216 51.9275 240.928 50.9104C 241.649 49.8932 242.009 47.8589 242.009 44.8074C 242.009 41.7389 241.649 39.7004 240.928 38.6917C 240.216 37.683 239.326 37.1786 238.258 37.1786C 237.207 37.1786 236.368 37.6236 235.741 38.5137C 234.952 39.6495 234.558 41.7474 234.558 44.8074ZM 30.6803 83L 30.6803 69.4971L 32.74 69.4971L 32.74 71.5442C 33.2655 70.5863 33.7487 69.9549 34.1895 69.6497C 34.6387 69.3446 35.1304 69.192 35.6644 69.192C 36.4357 69.192 37.2198 69.4378 38.0166 69.9294L 37.2283 72.0528C 36.6688 71.7222 36.1094 71.5569 35.5499 71.5569C 35.0498 71.5569 34.6006 71.7095 34.2022 72.0146C 33.8038 72.3113 33.5198 72.7266 33.3503 73.2606C 33.096 74.0744 32.9689 74.9644 32.9689 75.9307L 32.9689 83L 30.6803 83ZM 48.6205 78.6516L 50.9854 78.9441C 50.6125 80.3257 49.9216 81.398 48.9129 82.1608C 47.9043 82.9237 46.6158 83.3051 45.0477 83.3051C 43.0727 83.3051 41.5046 82.6991 40.3433 81.487C 39.1905 80.2664 38.6141 78.5584 38.6141 76.363C 38.6141 74.0913 39.199 72.3282 40.3688 71.0737C 41.5385 69.8192 43.0558 69.192 44.9206 69.192C 46.726 69.192 48.2009 69.8065 49.3452 71.0356C 50.4895 72.2647 51.0617 73.9938 51.0617 76.2231C 51.0617 76.3588 51.0575 76.5622 51.049 76.8334L 40.9791 76.8334C 41.0638 78.3168 41.4834 79.4526 42.2378 80.2409C 42.9922 81.0292 43.9331 81.4234 45.0604 81.4234C 45.8996 81.4234 46.6158 81.203 47.2092 80.7622C 47.8025 80.3215 48.273 79.6179 48.6205 78.6516ZM 41.1062 74.9517L 48.6459 74.9517C 48.5442 73.8158 48.256 72.964 47.7813 72.3961C 47.0524 71.5145 46.1073 71.0737 44.946 71.0737C 43.8949 71.0737 43.0091 71.4255 42.2887 72.129C 41.5766 72.8326 41.1825 73.7735 41.1062 74.9517ZM 58.8684 80.953L 59.199 82.9746C 58.5548 83.1102 57.9784 83.178 57.4698 83.178C 56.6392 83.178 55.995 83.0466 55.5372 82.7839C 55.0795 82.5211 54.7574 82.1778 54.5709 81.754C 54.3844 81.3217 54.2912 80.4189 54.2912 79.0458L 54.2912 71.2772L 52.6129 71.2772L 52.6129 69.4971L 54.2912 69.4971L 54.2912 66.1532L 56.5671 64.78L 56.5671 69.4971L 58.8684 69.4971L 58.8684 71.2772L 56.5671 71.2772L 56.5671 79.1729C 56.5671 79.8256 56.6053 80.2452 56.6815 80.4317C 56.7663 80.6181 56.8977 80.7665 57.0757 80.8767C 57.2622 80.9869 57.5249 81.042 57.864 81.042C 58.1183 81.042 58.4531 81.0123 58.8684 80.953ZM 69.9683 83L 69.9683 81.0165C 68.9172 82.5423 67.4889 83.3051 65.6835 83.3051C 64.8867 83.3051 64.1408 83.1526 63.4457 82.8474C 62.7591 82.5423 62.2463 82.1608 61.9072 81.7031C 61.5766 81.2369 61.3435 80.669 61.2079 79.9994C 61.1147 79.5501 61.0681 78.8381 61.0681 77.8633L 61.0681 69.4971L 63.3567 69.4971L 63.3567 76.986C 63.3567 78.1812 63.4033 78.9864 63.4965 79.4018C 63.6406 80.0036 63.9458 80.4783 64.412 80.8258C 64.8782 81.1649 65.4546 81.3344 66.1412 81.3344C 66.8278 81.3344 67.472 81.1606 68.0738 80.8131C 68.6756 80.4571 69.0994 79.9782 69.3453 79.3763C 69.5995 78.766 69.7267 77.8845 69.7267 76.7317L 69.7267 69.4971L 72.0153 69.4971L 72.0153 83L 69.9683 83ZM 75.5881 83L 75.5881 69.4971L 77.6479 69.4971L 77.6479 71.5442C 78.1734 70.5863 78.6566 69.9549 79.0973 69.6497C 79.5466 69.3446 80.0382 69.192 80.5722 69.192C 81.3436 69.192 82.1276 69.4378 82.9244 69.9294L 82.1361 72.0528C 81.5767 71.7222 81.0172 71.5569 80.4578 71.5569C 79.9577 71.5569 79.5084 71.7095 79.11 72.0146C 78.7116 72.3113 78.4277 72.7266 78.2582 73.2606C 78.0039 74.0744 77.8767 74.9644 77.8767 75.9307L 77.8767 83L 75.5881 83ZM 84.2849 83L 84.2849 69.4971L 86.3446 69.4971L 86.3446 71.417C 87.3364 69.9337 88.7689 69.192 90.6422 69.192C 91.4559 69.192 92.2018 69.3403 92.8799 69.637C 93.5665 69.9252 94.0793 70.3066 94.4184 70.7813C 94.7574 71.256 94.9948 71.8197 95.1304 72.4723C 95.2152 72.8962 95.2575 73.6378 95.2575 74.6974L 95.2575 83L 92.9689 83L 92.9689 74.7864C 92.9689 73.854 92.8799 73.1589 92.7019 72.7012C 92.5239 72.235 92.206 71.8663 91.7483 71.595C 91.2991 71.3153 90.7693 71.1755 90.159 71.1755C 89.1842 71.1755 88.3408 71.4848 87.6288 72.1036C 86.9253 72.7224 86.5735 73.8964 86.5735 75.6256L 86.5735 83L 84.2849 83ZM 114.838 81.3344C 113.99 82.0549 113.172 82.5635 112.384 82.8601C 111.604 83.1568 110.765 83.3051 109.867 83.3051C 108.383 83.3051 107.243 82.9449 106.446 82.2244C 105.65 81.4954 105.251 80.5673 105.251 79.4399C 105.251 78.7788 105.4 78.1769 105.696 77.6345C 106.001 77.0835 106.395 76.6427 106.879 76.3121C 107.37 75.9816 107.921 75.7315 108.532 75.562C 108.981 75.4433 109.659 75.3289 110.566 75.2187C 112.414 74.9983 113.774 74.7355 114.647 74.4304C 114.656 74.1168 114.66 73.9176 114.66 73.8328C 114.66 72.9004 114.444 72.2435 114.012 71.862C 113.427 71.345 112.558 71.0865 111.405 71.0865C 110.329 71.0865 109.532 71.2772 109.015 71.6586C 108.506 72.0316 108.129 72.697 107.883 73.6548L 105.645 73.3496C 105.849 72.3918 106.184 71.6205 106.65 71.0356C 107.116 70.4422 107.79 69.9888 108.671 69.6751C 109.553 69.353 110.574 69.192 111.736 69.192C 112.888 69.192 113.825 69.3276 114.546 69.5988C 115.266 69.8701 115.796 70.2134 116.135 70.6287C 116.474 71.0356 116.711 71.5527 116.847 72.1799C 116.923 72.5698 116.961 73.2734 116.961 74.2905L 116.961 77.342C 116.961 79.4696 117.008 80.8173 117.101 81.3852C 117.203 81.9447 117.398 82.4829 117.686 83L 115.296 83C 115.058 82.5253 114.906 81.9701 114.838 81.3344ZM 114.647 76.2231C 113.817 76.5622 112.571 76.8504 110.909 77.0877C 109.968 77.2233 109.303 77.3759 108.913 77.5455C 108.523 77.715 108.222 77.965 108.01 78.2956C 107.798 78.6177 107.692 78.978 107.692 79.3763C 107.692 79.9866 107.921 80.4952 108.379 80.9021C 108.845 81.309 109.523 81.5124 110.413 81.5124C 111.295 81.5124 112.079 81.3217 112.765 80.9402C 113.452 80.5503 113.956 80.0206 114.279 79.3509C 114.524 78.8339 114.647 78.071 114.647 77.0623L 114.647 76.2231ZM 120.521 88.1748L 120.521 69.4971L 122.607 69.4971L 122.607 71.2517C 123.098 70.5652 123.653 70.0523 124.272 69.7133C 124.891 69.3657 125.641 69.192 126.523 69.192C 127.675 69.192 128.693 69.4887 129.574 70.082C 130.456 70.6753 131.121 71.5145 131.57 72.5995C 132.02 73.676 132.244 74.8584 132.244 76.1468C 132.244 77.5285 131.994 78.7745 131.494 79.8849C 131.002 80.9869 130.282 81.8345 129.333 82.4278C 128.392 83.0127 127.4 83.3051 126.357 83.3051C 125.594 83.3051 124.908 83.1441 124.298 82.822C 123.696 82.4999 123.2 82.093 122.81 81.6014L 122.81 88.1748L 120.521 88.1748ZM 122.594 76.3249C 122.594 78.0625 122.946 79.3467 123.649 80.1774C 124.353 81.0081 125.205 81.4234 126.205 81.4234C 127.222 81.4234 128.091 80.9953 128.811 80.1392C 129.54 79.2746 129.905 77.9396 129.905 76.1341C 129.905 74.4134 129.549 73.125 128.837 72.2689C 128.133 71.4128 127.29 70.9847 126.307 70.9847C 125.332 70.9847 124.467 71.4425 123.713 72.3579C 122.967 73.2649 122.594 74.5872 122.594 76.3249ZM 134.991 83L 134.991 69.4971L 137.05 69.4971L 137.05 71.5442C 137.576 70.5863 138.059 69.9549 138.5 69.6497C 138.949 69.3446 139.441 69.192 139.975 69.192C 140.746 69.192 141.53 69.4378 142.327 69.9294L 141.539 72.0528C 140.979 71.7222 140.42 71.5569 139.86 71.5569C 139.36 71.5569 138.911 71.7095 138.513 72.0146C 138.114 72.3113 137.83 72.7266 137.661 73.2606C 137.406 74.0744 137.279 74.9644 137.279 75.9307L 137.279 83L 134.991 83ZM 152.931 78.6516L 155.296 78.9441C 154.923 80.3257 154.232 81.398 153.223 82.1608C 152.215 82.9237 150.926 83.3051 149.358 83.3051C 147.383 83.3051 145.815 82.6991 144.654 81.487C 143.501 80.2664 142.924 78.5584 142.924 76.363C 142.924 74.0913 143.509 72.3282 144.679 71.0737C 145.849 69.8192 147.366 69.192 149.231 69.192C 151.036 69.192 152.511 69.8065 153.656 71.0356C 154.8 72.2647 155.372 73.9938 155.372 76.2231C 155.372 76.3588 155.368 76.5622 155.359 76.8334L 145.289 76.8334C 145.374 78.3168 145.794 79.4526 146.548 80.2409C 147.302 81.0292 148.243 81.4234 149.371 81.4234C 150.21 81.4234 150.926 81.203 151.519 80.7622C 152.113 80.3215 152.583 79.6179 152.931 78.6516ZM 145.417 74.9517L 152.956 74.9517C 152.855 73.8158 152.566 72.964 152.092 72.3961C 151.363 71.5145 150.418 71.0737 149.256 71.0737C 148.205 71.0737 147.319 71.4255 146.599 72.129C 145.887 72.8326 145.493 73.7735 145.417 74.9517ZM 158.182 83L 158.182 69.4971L 160.242 69.4971L 160.242 71.417C 161.233 69.9337 162.666 69.192 164.539 69.192C 165.353 69.192 166.099 69.3403 166.777 69.637C 167.464 69.9252 167.976 70.3066 168.315 70.7813C 168.655 71.256 168.892 71.8197 169.027 72.4723C 169.112 72.8962 169.155 73.6378 169.155 74.6974L 169.155 83L 166.866 83L 166.866 74.7864C 166.866 73.854 166.777 73.1589 166.599 72.7012C 166.421 72.235 166.103 71.8663 165.645 71.595C 165.196 71.3153 164.666 71.1755 164.056 71.1755C 163.081 71.1755 162.238 71.4848 161.526 72.1036C 160.822 72.7224 160.471 73.8964 160.471 75.6256L 160.471 83L 158.182 83ZM 181.437 83L 181.437 81.2962C 180.581 82.6355 179.322 83.3051 177.661 83.3051C 176.584 83.3051 175.592 83.0085 174.685 82.4151C 173.787 81.8218 173.088 80.9953 172.588 79.9358C 172.096 78.8678 171.85 77.6429 171.85 76.2613C 171.85 74.9135 172.075 73.6929 172.524 72.5995C 172.973 71.4976 173.647 70.6542 174.546 70.0693C 175.444 69.4844 176.449 69.192 177.559 69.192C 178.373 69.192 179.097 69.3657 179.733 69.7133C 180.369 70.0523 180.886 70.4973 181.284 71.0483L 181.284 64.3604L 183.56 64.3604L 183.56 83L 181.437 83ZM 174.202 76.2613C 174.202 77.9905 174.567 79.2831 175.296 80.1392C 176.025 80.9953 176.885 81.4234 177.877 81.4234C 178.877 81.4234 179.725 81.0165 180.42 80.2028C 181.123 79.3806 181.475 78.1303 181.475 76.452C 181.475 74.6041 181.119 73.2479 180.407 72.3833C 179.695 71.5187 178.818 71.0865 177.775 71.0865C 176.758 71.0865 175.906 71.5018 175.219 72.3325C 174.541 73.1632 174.202 74.4728 174.202 76.2613ZM 187.184 66.9924L 187.184 64.3604L 189.472 64.3604L 189.472 66.9924L 187.184 66.9924ZM 187.184 83L 187.184 69.4971L 189.472 69.4971L 189.472 83L 187.184 83ZM 191.761 83L 191.761 81.1437L 200.356 71.2772C 199.381 71.328 198.521 71.3535 197.775 71.3535L 192.27 71.3535L 192.27 69.4971L 203.306 69.4971L 203.306 71.0102L 195.995 79.5798L 194.584 81.1437C 195.609 81.0674 196.571 81.0292 197.47 81.0292L 203.713 81.0292L 203.713 83L 191.761 83ZM 214.8 81.3344C 213.952 82.0549 213.134 82.5635 212.346 82.8601C 211.566 83.1568 210.727 83.3051 209.829 83.3051C 208.345 83.3051 207.205 82.9449 206.408 82.2244C 205.612 81.4954 205.213 80.5673 205.213 79.4399C 205.213 78.7788 205.361 78.1769 205.658 77.6345C 205.963 77.0835 206.357 76.6427 206.841 76.3121C 207.332 75.9816 207.883 75.7315 208.493 75.562C 208.943 75.4433 209.621 75.3289 210.528 75.2187C 212.376 74.9983 213.736 74.7355 214.609 74.4304C 214.618 74.1168 214.622 73.9176 214.622 73.8328C 214.622 72.9004 214.406 72.2435 213.973 71.862C 213.389 71.345 212.52 71.0865 211.367 71.0865C 210.29 71.0865 209.494 71.2772 208.977 71.6586C 208.468 72.0316 208.091 72.697 207.845 73.6548L 205.607 73.3496C 205.811 72.3918 206.146 71.6205 206.612 71.0356C 207.078 70.4422 207.752 69.9888 208.633 69.6751C 209.515 69.353 210.536 69.192 211.698 69.192C 212.85 69.192 213.787 69.3276 214.507 69.5988C 215.228 69.8701 215.758 70.2134 216.097 70.6287C 216.436 71.0356 216.673 71.5527 216.809 72.1799C 216.885 72.5698 216.923 73.2734 216.923 74.2905L 216.923 77.342C 216.923 79.4696 216.97 80.8173 217.063 81.3852C 217.165 81.9447 217.36 82.4829 217.648 83L 215.258 83C 215.02 82.5253 214.868 81.9701 214.8 81.3344ZM 214.609 76.2231C 213.779 76.5622 212.532 76.8504 210.871 77.0877C 209.93 77.2233 209.265 77.3759 208.875 77.5455C 208.485 77.715 208.184 77.965 207.972 78.2956C 207.76 78.6177 207.654 78.978 207.654 79.3763C 207.654 79.9866 207.883 80.4952 208.341 80.9021C 208.807 81.309 209.485 81.5124 210.375 81.5124C 211.257 81.5124 212.041 81.3217 212.727 80.9402C 213.414 80.5503 213.918 80.0206 214.24 79.3509C 214.486 78.8339 214.609 78.071 214.609 77.0623L 214.609 76.2231ZM 229.244 83L 229.244 81.2962C 228.388 82.6355 227.129 83.3051 225.467 83.3051C 224.391 83.3051 223.399 83.0085 222.492 82.4151C 221.594 81.8218 220.894 80.9953 220.394 79.9358C 219.903 78.8678 219.657 77.6429 219.657 76.2613C 219.657 74.9135 219.881 73.6929 220.331 72.5995C 220.78 71.4976 221.454 70.6542 222.352 70.0693C 223.251 69.4844 224.255 69.192 225.366 69.192C 226.179 69.192 226.904 69.3657 227.54 69.7133C 228.176 70.0523 228.693 70.4973 229.091 71.0483L 229.091 64.3604L 231.367 64.3604L 231.367 83L 229.244 83ZM 222.009 76.2613C 222.009 77.9905 222.374 79.2831 223.103 80.1392C 223.831 80.9953 224.692 81.4234 225.684 81.4234C 226.684 81.4234 227.531 81.0165 228.226 80.2028C 228.93 79.3806 229.282 78.1303 229.282 76.452C 229.282 74.6041 228.926 73.2479 228.214 72.3833C 227.502 71.5187 226.624 71.0865 225.582 71.0865C 224.565 71.0865 223.713 71.5018 223.026 72.3325C 222.348 73.1632 222.009 74.4728 222.009 76.2613ZM 234.126 76.2486C 234.126 73.748 234.821 71.8959 236.211 70.6923C 237.373 69.6921 238.788 69.192 240.458 69.192C 242.314 69.192 243.832 69.8023 245.01 71.0229C 246.188 72.235 246.777 73.9133 246.777 76.0578C 246.777 77.7955 246.514 79.1644 245.989 80.1647C 245.472 81.1564 244.713 81.9277 243.713 82.4787C 242.721 83.0297 241.636 83.3051 240.458 83.3051C 238.568 83.3051 237.038 82.6991 235.868 81.487C 234.707 80.2748 234.126 78.5287 234.126 76.2486ZM 236.478 76.2486C 236.478 77.9777 236.855 79.2746 237.61 80.1392C 238.364 80.9953 239.314 81.4234 240.458 81.4234C 241.594 81.4234 242.539 80.9911 243.293 80.1265C 244.048 79.2619 244.425 77.9438 244.425 76.1723C 244.425 74.5024 244.043 73.2395 243.281 72.3833C 242.526 71.5187 241.585 71.0865 240.458 71.0865C 239.314 71.0865 238.364 71.5145 237.61 72.3706C 236.855 73.2267 236.478 74.5194 236.478 76.2486ZM 291.456 148.48L 289.816 148.48C 292.35 144.411 293.618 140.338 293.618 136.261C 293.618 134.668 293.435 133.087 293.071 131.519C 292.783 130.247 292.38 129.027 291.863 127.857C 291.532 127.094 290.85 125.823 289.816 124.043L 291.456 124.043C 293.05 126.17 294.228 128.306 294.991 130.451C 295.643 132.299 295.97 134.231 295.97 136.249C 295.97 138.537 295.529 140.75 294.647 142.886C 293.774 145.022 292.711 146.886 291.456 148.48ZM 299.225 132.104L 299.225 129.497L 301.831 129.497L 301.831 132.104L 299.225 132.104ZM 299.225 143L 299.225 140.394L 301.831 140.394L 301.831 143C 301.831 143.958 301.662 144.729 301.323 145.314C 300.983 145.907 300.445 146.365 299.708 146.687L 299.072 145.708C 299.555 145.496 299.911 145.183 300.14 144.767C 300.369 144.36 300.496 143.771 300.522 143L 299.225 143Z"/>
<path id="path7_fill" d="M 56.796 148.48C 55.533 146.886 54.465 145.022 53.5919 142.886C 52.7188 140.75 52.2823 138.537 52.2823 136.249C 52.2823 134.231 52.6086 132.299 53.2613 130.451C 54.0242 128.306 55.2024 126.17 56.796 124.043L 58.4362 124.043C 57.4105 125.806 56.7324 127.064 56.4018 127.819C 55.8848 128.989 55.4779 130.209 55.1812 131.481C 54.8167 133.066 54.6345 134.659 54.6345 136.261C 54.6345 140.338 55.9017 144.411 58.4362 148.48L 56.796 148.48Z"/>
<path id="path8_fill" d="M 60.9536 126.827L 60.9536 124.17L 63.4075 124.17L 63.4075 126.268C 63.4075 127.403 63.2762 128.221 63.0134 128.722C 62.6489 129.408 62.081 129.925 61.3096 130.273L 60.7502 129.37C 61.2079 129.184 61.547 128.891 61.7674 128.493C 61.9962 128.086 62.1234 127.531 62.1488 126.827L 60.9536 126.827ZM 67.1838 143L 67.1838 124.36L 74.2149 124.36C 75.4525 124.36 76.3976 124.42 77.0503 124.538C 77.9657 124.691 78.7328 124.983 79.3516 125.416C 79.9704 125.84 80.4663 126.437 80.8392 127.209C 81.2207 127.98 81.4114 128.827 81.4114 129.751C 81.4114 131.337 80.907 132.68 79.8983 133.782C 78.8897 134.875 77.0672 135.422 74.4311 135.422L 69.6504 135.422L 69.6504 143L 67.1838 143ZM 69.6504 133.222L 74.4692 133.222C 76.0628 133.222 77.1944 132.926 77.864 132.332C 78.5336 131.739 78.8685 130.904 78.8685 129.828C 78.8685 129.048 78.6693 128.382 78.2709 127.832C 77.881 127.272 77.3639 126.903 76.7197 126.725C 76.3044 126.615 75.5372 126.56 74.4184 126.56L 69.6504 126.56L 69.6504 133.222ZM 84.1577 148.2L 83.9034 146.051C 84.4035 146.187 84.8401 146.255 85.213 146.255C 85.7216 146.255 86.1285 146.17 86.4336 146.001C 86.7388 145.831 86.9888 145.594 87.1838 145.289C 87.3279 145.06 87.561 144.492 87.8831 143.585C 87.9255 143.458 87.9933 143.271 88.0865 143.025L 82.9626 129.497L 85.4292 129.497L 88.2391 137.317C 88.6036 138.308 88.9299 139.351 89.2181 140.444C 89.4809 139.393 89.7945 138.368 90.159 137.367L 93.0452 129.497L 95.3338 129.497L 90.1971 143.229C 89.6462 144.712 89.2181 145.734 88.913 146.293C 88.5061 147.047 88.0399 147.598 87.5144 147.946C 86.9888 148.302 86.3616 148.48 85.6326 148.48C 85.1918 148.48 84.7002 148.387 84.1577 148.2ZM 97.2283 143L 97.2283 124.36L 99.5169 124.36L 99.5169 143L 97.2283 143ZM 111.888 141.334C 111.041 142.055 110.223 142.563 109.434 142.86C 108.654 143.157 107.815 143.305 106.917 143.305C 105.433 143.305 104.293 142.945 103.497 142.224C 102.7 141.495 102.301 140.567 102.301 139.44C 102.301 138.779 102.45 138.177 102.746 137.634C 103.052 137.083 103.446 136.643 103.929 136.312C 104.421 135.982 104.971 135.732 105.582 135.562C 106.031 135.443 106.709 135.329 107.616 135.219C 109.464 134.998 110.824 134.736 111.697 134.43C 111.706 134.117 111.71 133.918 111.71 133.833C 111.71 132.9 111.494 132.243 111.062 131.862C 110.477 131.345 109.608 131.086 108.455 131.086C 107.379 131.086 106.582 131.277 106.065 131.659C 105.556 132.032 105.179 132.697 104.933 133.655L 102.696 133.35C 102.899 132.392 103.234 131.62 103.7 131.036C 104.166 130.442 104.84 129.989 105.722 129.675C 106.603 129.353 107.625 129.192 108.786 129.192C 109.939 129.192 110.875 129.328 111.596 129.599C 112.316 129.87 112.846 130.213 113.185 130.629C 113.524 131.036 113.761 131.553 113.897 132.18C 113.973 132.57 114.012 133.273 114.012 134.291L 114.012 137.342C 114.012 139.47 114.058 140.817 114.151 141.385C 114.253 141.945 114.448 142.483 114.736 143L 112.346 143C 112.109 142.525 111.956 141.97 111.888 141.334ZM 111.697 136.223C 110.867 136.562 109.621 136.85 107.959 137.088C 107.019 137.223 106.353 137.376 105.963 137.545C 105.573 137.715 105.272 137.965 105.06 138.296C 104.849 138.618 104.743 138.978 104.743 139.376C 104.743 139.987 104.971 140.495 105.429 140.902C 105.895 141.309 106.574 141.512 107.464 141.512C 108.345 141.512 109.129 141.322 109.816 140.94C 110.502 140.55 111.007 140.021 111.329 139.351C 111.575 138.834 111.697 138.071 111.697 137.062L 111.697 136.223ZM 126.332 143L 126.332 141.296C 125.476 142.636 124.217 143.305 122.556 143.305C 121.479 143.305 120.487 143.008 119.581 142.415C 118.682 141.822 117.983 140.995 117.483 139.936C 116.991 138.868 116.745 137.643 116.745 136.261C 116.745 134.914 116.97 133.693 117.419 132.599C 117.868 131.498 118.542 130.654 119.441 130.069C 120.339 129.484 121.344 129.192 122.454 129.192C 123.268 129.192 123.992 129.366 124.628 129.713C 125.264 130.052 125.781 130.497 126.179 131.048L 126.179 124.36L 128.455 124.36L 128.455 143L 126.332 143ZM 119.097 136.261C 119.097 137.99 119.462 139.283 120.191 140.139C 120.92 140.995 121.78 141.423 122.772 141.423C 123.772 141.423 124.62 141.017 125.315 140.203C 126.018 139.381 126.37 138.13 126.37 136.452C 126.37 134.604 126.014 133.248 125.302 132.383C 124.59 131.519 123.713 131.086 122.67 131.086C 121.653 131.086 120.801 131.502 120.115 132.332C 119.436 133.163 119.097 134.473 119.097 136.261ZM 132.079 126.992L 132.079 124.36L 134.368 124.36L 134.368 126.992L 132.079 126.992ZM 132.079 143L 132.079 129.497L 134.368 129.497L 134.368 143L 132.079 143ZM 147.108 138.652L 149.472 138.944C 149.099 140.326 148.409 141.398 147.4 142.161C 146.391 142.924 145.103 143.305 143.535 143.305C 141.56 143.305 139.992 142.699 138.83 141.487C 137.678 140.266 137.101 138.558 137.101 136.363C 137.101 134.091 137.686 132.328 138.856 131.074C 140.026 129.819 141.543 129.192 143.408 129.192C 145.213 129.192 146.688 129.807 147.832 131.036C 148.977 132.265 149.549 133.994 149.549 136.223C 149.549 136.359 149.544 136.562 149.536 136.833L 139.466 136.833C 139.551 138.317 139.97 139.453 140.725 140.241C 141.479 141.029 142.42 141.423 143.547 141.423C 144.387 141.423 145.103 141.203 145.696 140.762C 146.29 140.321 146.76 139.618 147.108 138.652ZM 139.593 134.952L 147.133 134.952C 147.031 133.816 146.743 132.964 146.268 132.396C 145.539 131.515 144.594 131.074 143.433 131.074C 142.382 131.074 141.496 131.426 140.776 132.129C 140.064 132.833 139.67 133.773 139.593 134.952ZM 151.443 138.969L 153.706 138.613C 153.834 139.52 154.185 140.216 154.762 140.699C 155.347 141.182 156.16 141.423 157.203 141.423C 158.254 141.423 159.034 141.211 159.542 140.788C 160.051 140.355 160.305 139.851 160.305 139.275C 160.305 138.758 160.081 138.351 159.631 138.054C 159.318 137.851 158.538 137.592 157.292 137.278C 155.614 136.855 154.448 136.49 153.795 136.185C 153.151 135.871 152.66 135.443 152.321 134.901C 151.99 134.35 151.825 133.744 151.825 133.083C 151.825 132.481 151.96 131.926 152.232 131.417C 152.511 130.9 152.888 130.472 153.363 130.133C 153.719 129.87 154.202 129.65 154.813 129.472C 155.431 129.285 156.093 129.192 156.796 129.192C 157.856 129.192 158.784 129.345 159.581 129.65C 160.386 129.955 160.979 130.37 161.361 130.896C 161.742 131.413 162.005 132.108 162.149 132.981L 159.911 133.286C 159.809 132.591 159.513 132.049 159.021 131.659C 158.538 131.269 157.851 131.074 156.961 131.074C 155.91 131.074 155.16 131.248 154.711 131.595C 154.262 131.943 154.037 132.349 154.037 132.816C 154.037 133.112 154.13 133.379 154.317 133.617C 154.503 133.862 154.796 134.066 155.194 134.227C 155.423 134.312 156.097 134.507 157.216 134.812C 158.835 135.244 159.962 135.6 160.598 135.88C 161.242 136.151 161.746 136.549 162.111 137.075C 162.475 137.601 162.657 138.253 162.657 139.033C 162.657 139.796 162.433 140.516 161.984 141.195C 161.543 141.864 160.903 142.385 160.064 142.758C 159.225 143.123 158.275 143.305 157.216 143.305C 155.461 143.305 154.122 142.941 153.198 142.212C 152.282 141.483 151.698 140.402 151.443 138.969ZM 172.079 137.011L 174.406 136.808C 174.516 137.74 174.77 138.508 175.169 139.109C 175.575 139.703 176.203 140.186 177.05 140.559C 177.898 140.923 178.852 141.106 179.911 141.106C 180.852 141.106 181.683 140.966 182.403 140.686C 183.124 140.406 183.658 140.025 184.005 139.542C 184.361 139.05 184.539 138.516 184.539 137.94C 184.539 137.355 184.37 136.846 184.031 136.414C 183.692 135.973 183.132 135.604 182.352 135.308C 181.852 135.113 180.746 134.812 179.034 134.405C 177.322 133.99 176.122 133.6 175.436 133.235C 174.546 132.769 173.88 132.193 173.439 131.506C 173.007 130.811 172.791 130.035 172.791 129.179C 172.791 128.238 173.058 127.361 173.592 126.547C 174.126 125.725 174.906 125.102 175.931 124.678C 176.957 124.254 178.097 124.043 179.352 124.043C 180.733 124.043 181.95 124.267 183.001 124.716C 184.06 125.157 184.874 125.81 185.442 126.674C 186.01 127.539 186.315 128.518 186.357 129.612L 183.993 129.79C 183.865 128.611 183.433 127.721 182.696 127.12C 181.967 126.518 180.886 126.217 179.453 126.217C 177.962 126.217 176.872 126.492 176.186 127.043C 175.508 127.586 175.169 128.243 175.169 129.014C 175.169 129.684 175.41 130.235 175.893 130.667C 176.368 131.099 177.606 131.544 179.606 132.002C 181.615 132.451 182.992 132.845 183.738 133.184C 184.823 133.684 185.624 134.32 186.141 135.092C 186.658 135.854 186.917 136.736 186.917 137.736C 186.917 138.728 186.633 139.665 186.065 140.546C 185.497 141.419 184.679 142.102 183.611 142.593C 182.552 143.076 181.356 143.318 180.026 143.318C 178.339 143.318 176.923 143.072 175.779 142.58C 174.643 142.089 173.749 141.351 173.096 140.368C 172.452 139.376 172.113 138.257 172.079 137.011ZM 189.142 136.249C 189.142 133.748 189.837 131.896 191.227 130.692C 192.388 129.692 193.804 129.192 195.474 129.192C 197.33 129.192 198.847 129.802 200.026 131.023C 201.204 132.235 201.793 133.913 201.793 136.058C 201.793 137.796 201.53 139.164 201.005 140.165C 200.488 141.156 199.729 141.928 198.729 142.479C 197.737 143.03 196.652 143.305 195.474 143.305C 193.584 143.305 192.054 142.699 190.884 141.487C 189.723 140.275 189.142 138.529 189.142 136.249ZM 191.494 136.249C 191.494 137.978 191.871 139.275 192.626 140.139C 193.38 140.995 194.329 141.423 195.474 141.423C 196.61 141.423 197.555 140.991 198.309 140.127C 199.064 139.262 199.441 137.944 199.441 136.172C 199.441 134.502 199.059 133.239 198.296 132.383C 197.542 131.519 196.601 131.086 195.474 131.086C 194.329 131.086 193.38 131.515 192.626 132.371C 191.871 133.227 191.494 134.519 191.494 136.249ZM 204.463 143L 204.463 129.497L 206.523 129.497L 206.523 131.544C 207.048 130.586 207.531 129.955 207.972 129.65C 208.421 129.345 208.913 129.192 209.447 129.192C 210.218 129.192 211.002 129.438 211.799 129.929L 211.011 132.053C 210.452 131.722 209.892 131.557 209.333 131.557C 208.833 131.557 208.383 131.709 207.985 132.015C 207.587 132.311 207.303 132.727 207.133 133.261C 206.879 134.074 206.752 134.964 206.752 135.931L 206.752 143L 204.463 143ZM 212.308 136.249C 212.308 133.748 213.003 131.896 214.393 130.692C 215.554 129.692 216.97 129.192 218.64 129.192C 220.496 129.192 222.013 129.802 223.192 131.023C 224.37 132.235 224.959 133.913 224.959 136.058C 224.959 137.796 224.696 139.164 224.171 140.165C 223.653 141.156 222.895 141.928 221.895 142.479C 220.903 143.03 219.818 143.305 218.64 143.305C 216.749 143.305 215.219 142.699 214.05 141.487C 212.888 140.275 212.308 138.529 212.308 136.249ZM 214.66 136.249C 214.66 137.978 215.037 139.275 215.792 140.139C 216.546 140.995 217.495 141.423 218.64 141.423C 219.776 141.423 220.721 140.991 221.475 140.127C 222.229 139.262 222.607 137.944 222.607 136.172C 222.607 134.502 222.225 133.239 221.462 132.383C 220.708 131.519 219.767 131.086 218.64 131.086C 217.495 131.086 216.546 131.515 215.792 132.371C 215.037 133.227 214.66 134.519 214.66 136.249ZM 236.466 138.054L 238.716 138.346C 238.47 139.898 237.839 141.114 236.822 141.996C 235.813 142.869 234.571 143.305 233.096 143.305C 231.248 143.305 229.761 142.703 228.633 141.5C 227.514 140.288 226.955 138.554 226.955 136.299C 226.955 134.841 227.197 133.566 227.68 132.472C 228.163 131.379 228.896 130.561 229.879 130.018C 230.871 129.467 231.948 129.192 233.109 129.192C 234.575 129.192 235.775 129.565 236.707 130.311C 237.64 131.048 238.237 132.099 238.5 133.464L 236.275 133.807C 236.063 132.9 235.686 132.218 235.143 131.76C 234.609 131.303 233.961 131.074 233.198 131.074C 232.045 131.074 231.108 131.489 230.388 132.32C 229.667 133.142 229.307 134.447 229.307 136.236C 229.307 138.05 229.655 139.368 230.35 140.19C 231.045 141.012 231.952 141.423 233.071 141.423C 233.969 141.423 234.719 141.148 235.321 140.597C 235.923 140.046 236.304 139.198 236.466 138.054ZM 249.485 141.334C 248.638 142.055 247.82 142.563 247.031 142.86C 246.252 143.157 245.412 143.305 244.514 143.305C 243.03 143.305 241.89 142.945 241.094 142.224C 240.297 141.495 239.898 140.567 239.898 139.44C 239.898 138.779 240.047 138.177 240.343 137.634C 240.649 137.083 241.043 136.643 241.526 136.312C 242.018 135.982 242.569 135.732 243.179 135.562C 243.628 135.443 244.306 135.329 245.213 135.219C 247.061 134.998 248.421 134.736 249.295 134.43C 249.303 134.117 249.307 133.918 249.307 133.833C 249.307 132.9 249.091 132.243 248.659 131.862C 248.074 131.345 247.205 131.086 246.052 131.086C 244.976 131.086 244.179 131.277 243.662 131.659C 243.153 132.032 242.776 132.697 242.53 133.655L 240.293 133.35C 240.496 132.392 240.831 131.62 241.297 131.036C 241.763 130.442 242.437 129.989 243.319 129.675C 244.2 129.353 245.222 129.192 246.383 129.192C 247.536 129.192 248.472 129.328 249.193 129.599C 249.913 129.87 250.443 130.213 250.782 130.629C 251.121 131.036 251.359 131.553 251.494 132.18C 251.57 132.57 251.609 133.273 251.609 134.291L 251.609 137.342C 251.609 139.47 251.655 140.817 251.748 141.385C 251.85 141.945 252.045 142.483 252.333 143L 249.943 143C 249.706 142.525 249.553 141.97 249.485 141.334ZM 249.295 136.223C 248.464 136.562 247.218 136.85 245.556 137.088C 244.616 137.223 243.95 137.376 243.56 137.545C 243.17 137.715 242.869 137.965 242.658 138.296C 242.446 138.618 242.34 138.978 242.34 139.376C 242.34 139.987 242.569 140.495 243.026 140.902C 243.492 141.309 244.171 141.512 245.061 141.512C 245.942 141.512 246.726 141.322 247.413 140.94C 248.099 140.55 248.604 140.021 248.926 139.351C 249.172 138.834 249.295 138.071 249.295 137.062L 249.295 136.223ZM 257.279 143L 255.156 143L 255.156 124.36L 257.445 124.36L 257.445 131.01C 258.411 129.798 259.644 129.192 261.145 129.192C 261.975 129.192 262.759 129.362 263.497 129.701C 264.243 130.031 264.853 130.502 265.328 131.112C 265.811 131.714 266.188 132.443 266.459 133.299C 266.73 134.155 266.866 135.07 266.866 136.045C 266.866 138.359 266.294 140.148 265.15 141.411C 264.005 142.674 262.632 143.305 261.03 143.305C 259.437 143.305 258.186 142.64 257.279 141.309L 257.279 143ZM 257.254 136.147C 257.254 137.766 257.474 138.936 257.915 139.656C 258.635 140.834 259.61 141.423 260.839 141.423C 261.84 141.423 262.704 140.991 263.433 140.127C 264.162 139.253 264.527 137.957 264.527 136.236C 264.527 134.473 264.175 133.172 263.471 132.332C 262.776 131.493 261.933 131.074 260.941 131.074C 259.941 131.074 259.076 131.51 258.347 132.383C 257.618 133.248 257.254 134.502 257.254 136.147ZM 278.474 141.334C 277.627 142.055 276.809 142.563 276.021 142.86C 275.241 143.157 274.402 143.305 273.503 143.305C 272.02 143.305 270.88 142.945 270.083 142.224C 269.286 141.495 268.888 140.567 268.888 139.44C 268.888 138.779 269.036 138.177 269.333 137.634C 269.638 137.083 270.032 136.643 270.515 136.312C 271.007 135.982 271.558 135.732 272.168 135.562C 272.617 135.443 273.295 135.329 274.202 135.219C 276.05 134.998 277.411 134.736 278.284 134.43C 278.292 134.117 278.296 133.918 278.296 133.833C 278.296 132.9 278.08 132.243 277.648 131.862C 277.063 131.345 276.194 131.086 275.042 131.086C 273.965 131.086 273.168 131.277 272.651 131.659C 272.143 132.032 271.765 132.697 271.52 133.655L 269.282 133.35C 269.485 132.392 269.82 131.62 270.286 131.036C 270.752 130.442 271.426 129.989 272.308 129.675C 273.189 129.353 274.211 129.192 275.372 129.192C 276.525 129.192 277.462 129.328 278.182 129.599C 278.903 129.87 279.432 130.213 279.771 130.629C 280.11 131.036 280.348 131.553 280.483 132.18C 280.56 132.57 280.598 133.273 280.598 134.291L 280.598 137.342C 280.598 139.47 280.644 140.817 280.738 141.385C 280.839 141.945 281.034 142.483 281.323 143L 278.932 143C 278.695 142.525 278.542 141.97 278.474 141.334ZM 278.284 136.223C 277.453 136.562 276.207 136.85 274.546 137.088C 273.605 137.223 272.939 137.376 272.549 137.545C 272.16 137.715 271.859 137.965 271.647 138.296C 271.435 138.618 271.329 138.978 271.329 139.376C 271.329 139.987 271.558 140.495 272.015 140.902C 272.482 141.309 273.16 141.512 274.05 141.512C 274.931 141.512 275.715 141.322 276.402 140.94C 277.089 140.55 277.593 140.021 277.915 139.351C 278.161 138.834 278.284 138.071 278.284 137.062L 278.284 136.223ZM 284.018 126.827L 284.018 124.17L 286.472 124.17L 286.472 126.268C 286.472 127.403 286.341 128.221 286.078 128.722C 285.713 129.408 285.145 129.925 284.374 130.273L 283.815 129.37C 284.272 129.184 284.611 128.891 284.832 128.493C 285.061 128.086 285.188 127.531 285.213 126.827L 284.018 126.827Z"/>
</defs>
</svg>
