<svg width="488" height="683" viewBox="0 0 488 683" version="1.1" xmlns="http://www.w3.org/2000/svg" xmlns:xlink="http://www.w3.org/1999/xlink">
<title>Group 3</title>
<desc>Created using Figma</desc>
<g id="Canvas" transform="translate(828 205)">
<g id="Group 3">
<g id="Group 4" filter="url(#filter0_d)">
<g id="Polygon 2">
<use xlink:href="#path0_fill" transform="matrix(0.792723 0.610057 -0.552171 0.833385 -382.642 -66.0969)" fill="#FFFFFF"/>
</g>
<g id="Ellipse">
<use xlink:href="#path1_fill" transform="matrix(0.801971 0.597848 -0.539414 0.841699 -379.987 -19.0123)" fill="#FFA66E"/>
</g>
</g>
<g id="Group 4.1" filter="url(#filter1_d)">
<g id="Polygon 2">
<use xlink:href="#path0_fill" transform="matrix(-0.792723 0.610057 0.552171 0.833385 -776.492 -71.567)" fill="#FFFFFF"/>
</g>
<g id="Ellipse">
<use xlink:href="#path1_fill" transform="matrix(-0.801971 0.597848 0.539414 0.841699 -779.146 -24.4825)" fill="#FFA66E"/>
</g>
</g>
<g id="Group">
<g id="Group" filter="url(#filter2_d)">
<g id="Vector">
<use xlink:href="#path2_fill" transform="translate(-761.074 144.704)" fill="#FFFFFF"/>
</g>
<g id="Vector">
<use xlink:href="#path3_fill" transform="translate(-700.509 315.1)" fill="#FFFFFF"/>
</g>
<g id="Vector">
<use xlink:href="#path4_fill" transform="translate(-543.206 315.1)" fill="#FFFFFF"/>
</g>
<g id="Vector">
<use xlink:href="#path5_fill" transform="translate(-528.955 312.365)"/>
</g>
<g id="Vector">
<use xlink:href="#path6_fill" transform="translate(-543.206 303.498)"/>
</g>
<g id="Vector">
<use xlink:href="#path7_fill" transform="translate(-525.119 321.665)" fill="#FFFFFF"/>
</g>
<g id="Vector">
<use xlink:href="#path8_fill" transform="translate(-731.219 303.498)"/>
</g>
<g id="Vector">
<use xlink:href="#path9_fill" transform="translate(-686.533 312.365)"/>
</g>
<g id="Vector">
<use xlink:href="#path10_fill" transform="translate(-682.696 321.665)" fill="#FFFFFF"/>
</g>
<g id="Vector">
<use xlink:href="#path11_fill" transform="translate(-599.112 362.691)"/>
</g>
<g id="Vector">
<use xlink:href="#path12_fill" transform="translate(-731.751 331.784)"/>
</g>
<g id="Vector">
<use xlink:href="#path13_fill" transform="translate(-473.049 331.784)"/>
</g>
<g id="Vector">
<use xlink:href="#path14_fill" transform="translate(-701.057 360.229)"/>
</g>
<g id="Vector">
<use xlink:href="#path15_fill" transform="translate(-574.447 359.956)"/>
</g>
</g>
<g id="Vector">
<use xlink:href="#path16_fill" transform="translate(-801.085 112.43)" fill="#F48DA8"/>
</g>
<g id="Vector">
<use xlink:href="#path17_fill" transform="translate(-816.363 112.703)" fill="#B092C4"/>
</g>
<g id="Vector">
<use xlink:href="#path18_fill" transform="translate(-827.393 112.703)" fill="#F48DA8"/>
</g>
<g id="Vector">
<use xlink:href="#path19_fill" transform="translate(-473.05 253.014)" fill="#B092C4"/>
</g>
<g id="Vector">
<use xlink:href="#path20_fill" transform="translate(-801.085 -36.108)" fill="#B092C4"/>
</g>
<g id="Vector">
<use xlink:href="#path21_fill" transform="translate(-801.085 34.3243)" fill="#F48DA8"/>
</g>
<g id="Vector">
<use xlink:href="#path22_fill" transform="translate(-801.085 96.333)" fill="#FFA66E"/>
</g>
<g id="Vector">
<use xlink:href="#path23_fill" transform="translate(-801.085 112.703)" fill="#FFD350"/>
</g>
</g>
<g id="Group 2">
<g id="Polygon">
<use xlink:href="#path24_fill" transform="matrix(0.999912 0.0132896 -0.0130658 0.999915 -602.343 -211.28)" fill="#FFA66E"/>
</g>
<g id="Rectangle">
<use xlink:href="#path25_fill" transform="translate(-617.181 -117.032)" fill="#FFA66E"/>
</g>
<g id="Rectangle">
<use xlink:href="#path26_fill" transform="translate(-609.932 -136.363)" fill="#FFA66E"/>
</g>
<g id="Rectangle">
<use xlink:href="#path27_fill" transform="translate(-607.804 -156.981)" fill="#FFA66E"/>
</g>
<g id="Rectangle">
<use xlink:href="#path28_fill" transform="translate(-619.18 -89.9708)" fill="#FFA66E"/>
</g>
<g id="Polygon 3">
<use xlink:href="#path29_fill" transform="matrix(0.999996 0.00283888 -0.00311913 0.999995 -619.398 -61.62)" fill="#FFA66E"/>
</g>
</g>
</g>
</g>
<defs>
<filter id="filter0_d" filterUnits="userSpaceOnUse" x="-457" y="-46" width="115" height="147" color-interpolation-filters="sRGB">
<feFlood flood-opacity="0" result="BackgroundImageFix"/>
<feColorMatrix in="SourceAlpha" type="matrix" values="0 0 0 0 0 0 0 0 0 0 0 0 0 0 0 0 0 0 255 0"/>
<feOffset dx="0" dy="10.9511"/>
<feGaussianBlur stdDeviation="5.47557"/>
<feColorMatrix type="matrix" values="0 0 0 0 0 0 0 0 0 0 0 0 0 0 0 0 0 0 0.25 0"/>
<feBlend mode="normal" in2="BackgroundImageFix" result="effect1_dropShadow"/>
<feBlend mode="normal" in="SourceGraphic" in2="effect1_dropShadow" result="shape"/>
</filter>
<filter id="filter1_d" filterUnits="userSpaceOnUse" x="-817" y="-52" width="115" height="147" color-interpolation-filters="sRGB">
<feFlood flood-opacity="0" result="BackgroundImageFix"/>
<feColorMatrix in="SourceAlpha" type="matrix" values="0 0 0 0 0 0 0 0 0 0 0 0 0 0 0 0 0 0 255 0"/>
<feOffset dx="0" dy="10.9511"/>
<feGaussianBlur stdDeviation="5.47557"/>
<feColorMatrix type="matrix" values="0 0 0 0 0 0 0 0 0 0 0 0 0 0 0 0 0 0 0.25 0"/>
<feBlend mode="normal" in2="BackgroundImageFix" result="effect1_dropShadow"/>
<feBlend mode="normal" in="SourceGraphic" in2="effect1_dropShadow" result="shape"/>
</filter>
<filter id="filter2_d" filterUnits="userSpaceOnUse" x="-773" y="144" width="376" height="334" color-interpolation-filters="sRGB">
<feFlood flood-opacity="0" result="BackgroundImageFix"/>
<feColorMatrix in="SourceAlpha" type="matrix" values="0 0 0 0 0 0 0 0 0 0 0 0 0 0 0 0 0 0 255 0"/>
<feOffset dx="0" dy="10.9511"/>
<feGaussianBlur stdDeviation="5.47557"/>
<feColorMatrix type="matrix" values="0 0 0 0 0 0 0 0 0 0 0 0 0 0 0 0 0 0 0.25 0"/>
<feBlend mode="normal" in2="BackgroundImageFix" result="effect1_dropShadow"/>
<feBlend mode="normal" in="SourceGraphic" in2="effect1_dropShadow" result="shape"/>
</filter>
<path id="path0_fill" d="M 32.792 0.693018C 40.7171 -10.4819 105.467 117.176 72.3174 118.084C 39.1681 118.991 25.9538 133.092 5.71617 120.796C -14.5214 108.5 24.867 11.868 32.792 0.693018Z"/>
<path id="path1_fill" d="M 21.3953 38.2503C 21.3953 59.3706 14.2636 74.4433 10.6977 76.4919C 7.13176 78.5406 0 59.3706 0 38.2503C 0 17.13 6.36764 0.463889 10.6977 0.00865027C 15.0277 -0.446588 21.3953 17.13 21.3953 38.2503Z"/>
<path id="path2_fill" d="M 184.708 -4.17342e-06C 181.694 -4.17342e-06 178.953 -4.17342e-06 176.213 -4.17342e-06C 173.472 -4.17342e-06 170.458 -4.17342e-06 167.717 -4.17342e-06C 21.6498 5.7437 2.09082e-06 112.412 2.09082e-06 112.412C 2.09082e-06 112.412 42.4774 237.133 77.8296 265.851C 98.1092 282.262 149.904 309.339 176.487 311.254C 203.07 309.066 254.591 282.262 275.144 265.851C 310.496 237.133 352.974 112.412 352.974 112.412C 352.974 112.412 330.776 5.7437 184.708 -4.17342e-06Z"/>
<path id="path3_fill" d="M 73.993 21.3337C 73.993 21.3337 57.276 44.5821 36.9965 44.5821C 16.4429 44.5821 -2.09082e-06 21.3337 -2.09082e-06 21.3337C -2.09082e-06 21.3337 16.7169 -1.66937e-05 36.9965 -1.66937e-05C 57.276 0.273493 73.993 21.3337 73.993 21.3337Z"/>
<path id="path4_fill" d="M -8.36328e-06 21.3337C -8.36328e-06 21.3337 16.7169 44.5821 36.9965 44.5821C 57.5501 44.5821 73.9929 21.3337 73.9929 21.3337C 73.9929 21.3337 57.276 -1.66937e-05 36.9965 -1.66937e-05C 16.4429 0.273493 -8.36328e-06 21.3337 -8.36328e-06 21.3337Z"/>
<path id="path5_fill" d="M 4.18164e-06 15.043C 4.18164e-06 13.4019 0.274044 11.4874 0.548092 9.84634C 5.755 3.82913 13.7024 4.17342e-06 22.4719 4.17342e-06C 31.7896 4.17342e-06 39.737 4.10265 45.2179 10.6669C 45.492 12.0344 45.492 13.402 45.492 14.7695C 45.492 27.351 35.3522 37.4708 22.746 37.4708C 10.1398 37.7443 4.18164e-06 27.6244 4.18164e-06 15.043Z"/>
<path id="path6_fill" d="M 74.8151 34.851C 74.8151 34.851 63.5791 17.3463 40.5591 12.9702C 17.5391 8.59404 -8.36328e-06 33.2099 -8.36328e-06 33.2099C -8.36328e-06 33.2099 14.2505 8.04704 30.6934 3.9444C 35.9003 2.57685 42.4774 3.12388 42.4774 3.12388C 42.4774 3.12388 52.0691 -0.70527 53.4393 0.115258C 54.8096 0.935787 51.521 5.31194 51.521 5.31194C 51.521 5.31194 62.2089 0.935791 63.031 2.57685C 63.8532 4.21791 60.0165 9.41459 60.0165 9.41459C 60.0165 9.41459 73.4448 1.20931 74.267 3.39739C 75.3632 5.58546 68.2379 12.6967 68.2379 12.6967C 68.2379 12.6967 90.1618 2.30334 90.9839 6.40599C 92.0801 10.5086 75.9113 22.2695 75.9113 22.2695C 75.9113 22.2695 103.864 11.3292 104.412 15.4318C 105.234 19.5345 74.541 36.7656 74.541 36.7656L 74.8151 34.851Z"/>
<path id="path7_fill" d="M 12.0581 6.01721C 12.0581 9.29932 9.31763 12.0344 6.02905 12.0344C 2.74048 12.0344 8.36328e-06 9.29932 8.36328e-06 6.01721C 8.36328e-06 2.7351 2.74048 8.34685e-06 6.02905 8.34685e-06C 9.31763 8.34685e-06 12.0581 2.7351 12.0581 6.01721Z"/>
<path id="path8_fill" d="M 29.6134 34.851C 29.6134 34.851 40.8494 17.3463 63.8694 12.9702C 86.8894 8.59404 104.428 33.2099 104.428 33.2099C 104.428 33.2099 90.178 8.04704 73.7351 3.9444C 68.5282 2.57685 61.9511 3.12388 61.9511 3.12388C 61.9511 3.12388 52.3594 -0.70527 50.9891 0.115258C 49.6189 0.935787 52.9075 5.31194 52.9075 5.31194C 52.9075 5.31194 42.2196 0.935791 41.3975 2.57685C 40.5753 4.21791 44.412 9.41459 44.412 9.41459C 44.412 9.41459 30.9836 1.20931 30.1615 3.39739C 29.0653 5.58546 36.1906 12.6967 36.1906 12.6967C 36.1906 12.6967 14.2667 2.30334 13.4446 6.40599C 12.3484 10.5086 28.5172 22.2695 28.5172 22.2695C 28.5172 22.2695 0.564318 11.3292 0.016222 15.4318C -0.805922 19.5345 29.8874 36.7656 29.8874 36.7656L 29.6134 34.851Z"/>
<path id="path9_fill" d="M 45.492 15.043C 45.492 13.4019 45.2179 11.4874 44.9439 9.84634C 39.737 3.82913 31.7896 4.17342e-06 23.02 4.17342e-06C 13.7024 4.17342e-06 5.75501 4.10265 0.274048 10.6669C 0 12.0344 4.18164e-06 13.402 4.18164e-06 14.7695C 4.18164e-06 27.351 10.1398 37.4708 22.746 37.4708C 35.3522 37.7443 45.492 27.6244 45.492 15.043Z"/>
<path id="path10_fill" d="M 12.0581 6.01721C 12.0581 9.29932 9.31763 12.0344 6.02905 12.0344C 2.74048 12.0344 -2.09082e-06 9.29932 -2.09082e-06 6.01721C -2.09082e-06 2.7351 2.74048 8.34685e-06 6.02905 8.34685e-06C 9.31763 8.34685e-06 12.0581 2.7351 12.0581 6.01721Z"/>
<path id="path11_fill" d="M 5.2069 6.29074C 7.67333 4.92319 10.6879 3.82913 13.9764 3.82913C 17.265 3.82913 20.0055 4.64968 22.746 6.29074C 24.6643 6.56425 26.3086 6.83774 27.9529 7.38476C 24.9384 3.00861 20.0055 8.34685e-06 13.9764 8.34685e-06C 7.94739 8.34685e-06 3.01454 3.00861 8.36328e-06 7.38476C 1.6443 6.83774 3.28857 6.56425 5.2069 6.29074Z"/>
<path id="path12_fill" d="M 34.53 40.2059C 33.9819 40.2059 22.4719 36.6503 12.8802 26.5304C -3.92029e-06 12.8549 0.5481 2.7351 4.18164e-06 0L 2.74048 5.47019C 2.74048 5.47019 6.3031 16.1371 15.3467 23.7953C 24.9384 32.2741 35.0781 36.1033 35.0781 36.3768L 34.53 40.2059Z"/>
<path id="path13_fill" d="M 0.548096 40.2059C 1.09619 40.2059 12.6062 36.6503 22.1979 26.5304C 35.0781 12.8549 34.5301 2.7351 35.0782 0L 32.3377 5.47019C 32.3377 5.47019 28.775 16.1371 19.7315 23.7953C 10.1398 32.2741 8.36328e-06 36.1033 8.36328e-06 36.3768L 0.548096 40.2059Z"/>
<path id="path14_fill" d="M 101.398 9.57282C 101.398 22.4278 82.2144 42.6675 56.4539 42.6675C 30.6934 42.6675 11.51 22.7013 11.51 10.1199C 12.3322 8.2053 25.2124 5.19669 56.7279 5.19669C 81.1182 5.19669 97.5611 7.38475 101.398 9.02581L 101.398 9.57282ZM 105.234 6.56424C 103.042 7.82517e-06 57.8241 -1.66937e-05 52.6172 -1.66937e-05C 18.6353 -1.66937e-05 0.82214 2.73508 -4.18164e-06 8.20527C -4.18164e-06 25.9834 24.1162 47.5907 52.3431 47.5907C 80.296 47.5907 104.138 26.5304 104.686 9.02581C 105.783 7.93177 105.508 6.83775 105.234 6.56424Z"/>
<path id="path15_fill" d="M 4.11073 9.02583C 7.9474 7.38477 24.3903 5.19667 48.7805 5.19667C 80.2961 5.19667 93.1763 8.20529 93.9985 10.1199C 93.9985 22.7013 74.541 42.6675 49.0546 42.6675C 23.5681 42.6675 4.11073 22.7013 4.11073 9.57284L 4.11073 9.02583ZM 0.548096 9.02583C 1.09619 26.5304 25.2124 47.5907 52.8913 47.5907C 81.1182 47.5907 105.234 25.9834 105.234 8.20529C 104.412 2.46159 86.5992 8.34685e-06 52.6172 8.34685e-06C 47.4103 8.34685e-06 2.19239 0.273501 8.36328e-06 6.56422C 8.36328e-06 7.11124 0 8.2053 0.548096 9.02583Z"/>
<path id="path16_fill" d="M 89.6137 104.754C 34.8041 65.3688 6.3031 30.6331 1.04541e-06 -2.08671e-06C 132.091 89.4376 288.024 143.046 460.675 126.088C 342.834 213.884 218.416 194.192 89.6137 104.754Z"/>
<path id="path17_fill" d="M 15.2782 4.17342e-06C 35.0096 88.6171 54.7411 170.67 119.69 284.176C 69.2656 254.09 36.6539 216.62 18.8408 172.858C -7.46781 104.481 -3.90518 48.6847 15.2782 4.17342e-06Z"/>
<path id="path18_fill" d="M 26.3086 4.17342e-06L 115.922 104.754C 82.2144 176.687 17.8131 174.773 0 174.226C 47.4103 121.438 32.8858 16.1371 26.3086 4.17342e-06Z"/>
<path id="path19_fill" d="M 8.36328e-06 143.866C 27.4048 97.0959 46.5881 56.343 55.9058 27.6245L 112.086 -8.34685e-06C 93.7244 63.7277 59.4684 112.139 8.36328e-06 143.866Z"/>
<path id="path20_fill" d="M 1.04541e-06 148.811C 35.3522 64.8439 92.3542 16.1592 185.53 1.93668C 282.817 -9.55072 349.685 31.7492 392.437 81.2544L 1.04541e-06 148.811Z"/>
<path id="path21_fill" d="M 1.04541e-06 78.3789C 124.144 29.4207 241.984 -4.22092 345.574 0.428738C 371.883 2.61681 383.393 6.71946 392.437 11.0956C 420.115 45.8313 437.106 80.567 442.861 114.756L 1.04541e-06 78.3789Z"/>
<path id="path22_fill" d="M 1.04541e-06 16.3702C 115.648 2.69475 233.489 -6.87809 355.714 6.25037C 405.591 14.4557 429.433 32.5073 443.135 52.747C 448.342 80.645 449.439 107.449 445.054 132.885"/>
<path id="path23_fill" d="M 1.04541e-06 4.17342e-06C 176.213 17.5046 370.513 54.7019 379.556 62.6337C 388.6 70.5655 428.063 106.942 460.675 126.088C 249.932 153.439 108.797 85.0615 1.04541e-06 4.17342e-06Z"/>
<path id="path24_fill" d="M 11.8414 8.92414C 12.4427 6.29641 16.097 6.06797 17.0208 8.60037L 23.4889 26.3309C 23.6368 26.7362 23.7321 27.1559 23.7682 27.5859C 24.1001 31.5356 25.6391 52.4167 21.4109 55.9682C 17.9494 58.8756 7.87171 65.5463 2.87612 68.8115C 1.76739 69.5362 0.338728 68.5958 0.5511 67.2884L 5.5766 36.3501C 5.59388 36.2437 5.61456 36.138 5.6386 36.0329L 11.8414 8.92414Z"/>
<path id="path25_fill" d="M 3.38687 30.1509C 4.79553 28.8946 37.1951 8.91763 48.1227 2.191C 49.6896 1.22647 51.6842 2.36745 51.6842 4.20743L 51.6842 20.8629C 51.6842 24.9838 49.5401 28.7966 46.0204 30.9398C 36.1881 36.9267 16.1513 49.2192 7.13979 55.4124C -5.04824 63.7887 1.69119 31.6631 3.38687 30.1509Z"/>
<path id="path26_fill" d="M 2.25333 22.4378C 5.15278 20.0004 28.0309 6.98186 36.893 1.96928C 38.459 1.08351 40.3828 2.22239 40.3828 4.02155L 40.3828 13.425C 40.3828 17.7609 38.0065 21.739 34.2059 23.8258C 25.3082 28.7112 9.48276 37.5911 5.21617 41.2371C -0.815769 46.3918 -1.35349 25.47 2.25333 22.4378Z"/>
<path id="path27_fill" d="M 2.42747 20.3343C 5.57995 15.0598 23.3207 5.55666 30.8369 1.69776C 32.3857 0.902588 34.2021 2.03284 34.2021 3.77383L 34.2021 12.8399C 34.2021 16.4445 32.5578 19.8485 29.6817 22.0213C 22.4827 27.4598 8.82423 37.3712 4.8965 37.3712C -0.51628 37.3712 -1.59345 27.0619 2.42747 20.3343Z"/>
<path id="path28_fill" d="M 4.36074 33.4918C 7.93394 28.6303 44.1414 8.29156 55.6168 1.91833C 57.1805 1.04987 59.0858 2.1868 59.0858 3.97549L 59.0858 23.805C 59.0858 27.9826 56.8801 31.8409 53.2841 33.9674C 42.2516 40.4913 18.4707 54.6812 8.61313 61.5524C -4.43176 70.6454 0.108331 39.2773 4.36074 33.4918Z"/>
<path id="path29_fill" d="M 57.4249 3.62362C 59.771 2.07129 62.9015 3.75368 62.9015 6.56686L 62.9015 37.7293C 62.9015 39.6701 61.3344 41.2467 59.3937 41.2585L 3.95325 41.5951C 2.78352 41.6022 2.32143 40.0831 3.29697 39.4376L 57.4249 3.62362Z"/>
</defs>
</svg>
